<svg width="421" height="164" viewBox="0 0 421 164" fill="none" xmlns="http://www.w3.org/2000/svg">
<path d="M4.18408 16.6221C4.18408 9.73634 9.7752 4.14628 16.6623 4.14628C23.5493 4.14628 29.1405 9.73634 29.1405 16.6221C29.1405 23.5079 23.5493 29.098 16.6623 29.098C9.7752 29.098 4.18408 23.5079 4.18408 16.6221ZM16.6252 0C7.44248 0 0 7.44108 0 16.6221V74.8181C0.0370273 83.9991 7.47951 91.4032 16.6252 91.4032C25.808 91.4032 33.2505 83.9621 33.2505 74.781V16.6221C33.2135 7.44108 25.771 0.0370169 16.6252 0.0370169V0ZM200.429 119.576C207.982 119.576 214.129 125.721 214.129 133.273C214.129 140.825 207.982 146.971 200.429 146.971C192.875 146.971 186.728 140.825 186.728 133.273C186.728 125.721 192.838 119.576 200.429 119.576ZM218.683 133.273C218.683 123.204 210.5 115.022 200.429 115.022H95.1601C85.0887 115.059 76.9427 123.204 76.9427 133.273C76.9427 143.343 85.1257 151.524 95.1971 151.524H200.429C210.5 151.487 218.646 143.306 218.646 133.236H218.683V133.273Z" fill="#00D29B"/>
<path d="M185.621 147.266C186.066 148.118 186.066 148.932 185.658 149.71C185.251 150.487 184.585 150.857 183.659 150.857H179.475C178.327 150.857 177.512 150.672 176.92 150.265C176.365 149.858 175.883 149.266 175.476 148.377L169.366 136.049L165.664 142.713V148.118C165.664 148.858 165.405 149.488 164.849 150.043C164.294 150.598 163.664 150.857 162.924 150.857H158.591C157.851 150.857 157.221 150.598 156.666 150.043C156.111 149.488 155.851 148.858 155.851 148.118V109.987C155.851 109.247 156.111 108.617 156.666 108.062C157.221 107.507 157.851 107.247 158.591 107.247H162.961C163.701 107.247 164.331 107.507 164.886 108.062C165.442 108.617 165.701 109.247 165.701 109.987V123.573L173.439 109.654C173.884 108.839 174.365 108.21 174.921 107.84C175.476 107.433 176.328 107.247 177.475 107.247H181.659C182.585 107.247 183.215 107.655 183.585 108.432C183.955 109.21 183.918 110.024 183.474 110.838L175.032 126.017L185.621 147.266ZM249.382 103.471C249.938 104.027 250.197 104.656 250.197 105.396V148.081C250.197 148.821 249.938 149.451 249.382 150.006C248.827 150.561 248.197 150.82 247.457 150.82H243.162C242.421 150.82 241.792 150.561 241.236 150.006C240.977 149.747 240.792 149.451 240.644 149.154C240.237 149.525 239.829 149.858 239.385 150.154C237.904 151.042 236.127 151.487 234.053 151.487C230.461 151.487 227.721 150.228 225.87 147.711C224.019 145.193 223.093 141.491 223.093 136.642V129.756C223.093 124.906 224.019 121.204 225.87 118.687C227.721 116.169 230.424 114.911 234.053 114.911C236.127 114.911 237.904 115.355 239.385 116.243C239.755 116.466 240.088 116.725 240.422 116.984V105.396C240.422 104.656 240.681 104.027 241.236 103.471C241.792 102.916 242.421 102.657 243.162 102.657H247.457C248.197 102.657 248.827 102.953 249.382 103.471ZM240.422 139.122V127.275C240.422 126.683 240.274 126.128 240.014 125.647C239.718 125.165 239.311 124.795 238.718 124.536C238.126 124.277 237.423 124.129 236.608 124.129C235.349 124.129 234.423 124.499 233.794 125.202C233.201 125.906 232.868 127.053 232.868 128.571V137.826C232.868 139.344 233.164 140.455 233.794 141.195C234.386 141.898 235.349 142.269 236.608 142.269C237.423 142.269 238.126 142.121 238.718 141.861C239.311 141.602 239.755 141.232 240.014 140.751C240.274 140.27 240.422 139.714 240.422 139.122ZM283.744 142.047H276.079V105.396C276.079 104.656 275.82 104.027 275.264 103.471C274.709 102.916 274.08 102.657 273.339 102.657H273.265H269.044H261.305C260.565 102.657 259.935 102.916 259.38 103.471C258.824 104.027 258.565 104.656 258.565 105.396V108.728C258.565 109.469 258.824 110.098 259.38 110.653C259.935 111.209 260.565 111.468 261.305 111.468H266.304V142.047H258.639C257.899 142.047 257.269 142.306 256.714 142.861C256.158 143.416 255.899 144.046 255.899 144.786V148.118C255.899 148.858 256.158 149.488 256.714 150.043C257.269 150.598 257.899 150.857 258.639 150.857H269.044H273.339H283.744C284.484 150.857 285.114 150.598 285.669 150.043C286.224 149.488 286.484 148.858 286.484 148.118V144.786C286.484 144.046 286.224 143.416 285.669 142.861C285.114 142.306 284.484 142.047 283.744 142.047ZM315.587 115.873H311.292C310.551 115.873 309.922 116.132 309.367 116.688C308.811 117.243 308.552 117.872 308.552 118.613V137.345C308.552 139.122 308.293 140.381 307.811 141.121C307.33 141.861 306.515 142.232 305.442 142.232C304.035 142.232 303.072 141.898 302.516 141.306C301.961 140.677 301.665 139.455 301.665 137.678V118.613C301.665 117.872 301.406 117.243 300.85 116.688C300.295 116.132 299.665 115.873 298.925 115.873H294.63C293.889 115.873 293.26 116.132 292.704 116.688C292.149 117.243 291.89 117.872 291.89 118.613V137.678C291.89 142.38 292.778 145.823 294.556 148.081C296.333 150.339 299.11 151.45 302.887 151.45C305.442 151.45 307.367 150.487 308.589 148.562C308.7 149.08 308.922 149.562 309.367 149.969C309.922 150.524 310.551 150.783 311.292 150.783H315.587C316.328 150.783 316.957 150.524 317.513 149.969C318.068 149.414 318.327 148.784 318.327 148.044V118.576C318.327 117.835 318.068 117.206 317.513 116.651C316.957 116.169 316.291 115.873 315.587 115.873ZM352.059 115.873H347.764C346.727 115.873 345.949 116.095 345.468 116.54C344.987 116.984 344.616 117.65 344.394 118.539L339.433 137.678L334.36 118.539C334.138 117.687 333.767 117.021 333.286 116.54C332.805 116.095 332.027 115.873 330.99 115.873H326.695C325.881 115.873 325.214 116.206 324.733 116.836C324.251 117.502 324.14 118.205 324.4 118.983L334.619 151.487L334.36 152.227C334.138 152.819 333.842 153.338 333.434 153.745C333.027 154.152 332.509 154.485 331.879 154.67C331.25 154.893 330.509 155.004 329.62 155.004H328.324C327.584 155.004 326.954 155.263 326.399 155.818C325.844 156.373 325.584 157.003 325.584 157.743V161.075C325.584 161.815 325.844 162.445 326.399 163C326.954 163.555 327.584 163.815 328.324 163.815H332.546C335.026 163.815 337.026 163.296 338.544 162.26C340.062 161.223 341.21 159.927 341.988 158.373C342.765 156.818 343.543 154.856 344.246 152.486L354.392 118.983C354.614 118.205 354.466 117.502 353.984 116.836C353.54 116.206 352.874 115.873 352.059 115.873ZM382.941 118.613C385.199 121.093 386.31 124.795 386.31 129.756V136.642C386.31 141.602 385.162 145.304 382.941 147.785C380.682 150.265 377.313 151.487 372.795 151.487C368.277 151.487 364.907 150.265 362.649 147.785C360.39 145.304 359.279 141.602 359.279 136.642V129.756C359.279 124.795 360.39 121.093 362.649 118.613C364.907 116.132 368.277 114.911 372.795 114.911C377.276 114.911 380.682 116.132 382.941 118.613ZM376.535 128.571C376.535 126.757 376.239 125.461 375.683 124.758C375.128 124.055 374.128 123.684 372.758 123.684C371.351 123.684 370.389 124.055 369.832 124.758C369.277 125.461 368.98 126.757 368.98 128.571V137.826C368.98 139.64 369.277 140.936 369.832 141.639C370.389 142.343 371.388 142.713 372.758 142.713C374.128 142.713 375.128 142.343 375.683 141.639C376.239 140.936 376.535 139.64 376.535 137.826V128.571ZM420.153 116.688C419.598 116.132 418.968 115.873 418.228 115.873H415.117C413.599 115.873 412.229 116.206 410.97 116.799C410.193 117.206 409.489 117.909 408.86 118.909V118.576C408.86 117.835 408.601 117.206 408.045 116.651C407.49 116.095 406.86 115.836 406.12 115.836H406.046H401.825H394.864C394.123 115.836 393.494 116.095 392.938 116.651C392.383 117.206 392.124 117.835 392.124 118.576V121.907C392.124 122.648 392.383 123.277 392.938 123.833C393.494 124.388 394.123 124.647 394.864 124.647H399.085V142.047H394.604C393.864 142.047 393.234 142.306 392.679 142.861C392.124 143.416 391.864 144.046 391.864 144.786V148.118C391.864 148.858 392.124 149.488 392.679 150.043C393.234 150.598 393.864 150.857 394.604 150.857H401.825H406.12H415.932C416.673 150.857 417.302 150.598 417.857 150.043C418.413 149.488 418.672 148.858 418.672 148.118V144.786C418.672 144.046 418.413 143.416 417.857 142.861C417.302 142.306 416.673 142.047 415.932 142.047H408.823V128.645C408.934 127.535 409.193 126.72 409.6 126.202C410.156 125.498 411.156 125.128 412.526 125.128H418.191C418.931 125.128 419.561 124.869 420.116 124.314C420.672 123.759 420.931 123.129 420.931 122.389V118.613C420.968 117.872 420.709 117.243 420.153 116.688ZM142.855 79.1861L139.152 76.4466C137.819 75.447 136.708 75.0028 135.894 75.0768C135.042 75.1508 133.746 75.6691 132.006 76.6687L131.784 76.7797C130.858 77.261 129.932 77.6312 129.007 77.8163C128.044 78.0384 127.118 78.1495 126.23 78.1495C123.971 78.1495 122.268 77.4831 121.12 76.1504C119.972 74.8177 119.38 72.6705 119.38 69.7089V48.9405H131.599C132.783 48.9405 133.82 48.4962 134.709 47.6077C135.598 46.7192 136.042 45.6827 136.042 44.498V39.1301C136.042 37.9454 135.598 36.909 134.709 36.0205C133.82 35.132 132.783 34.6878 131.599 34.6878H119.38V25.0995C119.38 23.9149 118.935 22.8783 118.047 21.9898C117.158 21.1013 116.121 20.6571 114.936 20.6571H107.975C106.79 20.6571 105.754 21.1013 104.865 21.9898C103.976 22.8783 103.532 23.9149 103.532 25.0995V34.6878H99.6441C98.4592 34.6878 97.4225 35.132 96.5338 36.0205C95.6451 36.909 95.2008 37.9454 95.2008 39.1301V44.498C95.2008 45.6827 95.6451 46.7192 96.5338 47.6077C97.4225 48.4962 98.4592 48.9405 99.6441 48.9405H103.532V68.3391C103.532 76.2615 105.383 82.2587 109.123 86.294C112.863 90.3292 118.528 92.3653 126.193 92.3653C130.192 92.3653 133.672 91.7359 136.56 90.4773C139.485 89.2186 141.855 87.4416 143.67 85.2204C144.373 84.3689 144.632 83.3323 144.41 82.0736C144.225 80.7779 143.67 79.8154 142.855 79.1861ZM199.692 78.7048C200.025 79.075 200.173 79.6303 200.173 80.3337V87.2935C200.173 88.4041 199.803 89.2926 199.025 89.9219C198.248 90.6253 197.248 91.1066 195.952 91.4028C194.693 91.6989 193.397 91.81 192.064 91.81C189.62 91.81 187.251 91.0696 184.992 89.5888C183.696 88.7373 182.77 87.6637 182.215 86.405C181.141 87.9599 179.882 89.2556 178.327 90.1441C175.92 91.5879 173.069 92.2912 169.663 92.2912C163.812 92.2912 159.406 90.2551 156.444 86.1829C153.445 82.1107 151.964 76.1504 151.964 68.2651V57.0849C151.964 49.1996 153.445 43.2393 156.444 39.1671C159.443 35.095 163.849 33.0589 169.663 33.0589C173.032 33.0589 175.92 33.7623 178.327 35.2061C179.068 35.6503 179.771 36.2426 180.401 36.835C180.512 36.2797 180.771 35.8354 181.215 35.4652C181.882 34.9099 182.77 34.6137 183.918 34.6137H191.731C192.916 34.6137 193.953 35.058 194.841 35.9465C195.73 36.835 196.174 37.8714 196.174 39.056V76.3725C196.174 76.9278 196.285 77.3721 196.544 77.6312C196.804 77.9274 197.137 78.0384 197.544 78.0384H198.396C198.914 78.1125 199.359 78.3346 199.692 78.7048ZM180.03 53.1608C180.03 52.1612 179.808 51.3098 179.327 50.5323C178.882 49.7549 178.179 49.1626 177.216 48.7554C176.253 48.3481 175.143 48.126 173.773 48.126C171.736 48.126 170.218 48.7183 169.255 49.866C168.256 51.0136 167.774 52.8276 167.774 55.3079V70.2271C167.774 72.6705 168.256 74.4845 169.255 75.6691C170.255 76.8168 171.736 77.4091 173.773 77.4091C175.106 77.4091 176.253 77.187 177.216 76.7797C178.179 76.3725 178.882 75.7802 179.327 75.0028C179.771 74.2253 180.03 73.3368 180.03 72.3743V53.1608ZM237.46 33.0219C232.054 33.0219 227.87 34.7988 224.944 38.3526C224.796 37.5012 224.389 36.7239 223.722 36.0205C222.834 35.132 221.797 34.6878 220.612 34.6878H213.651C212.466 34.6878 211.429 35.132 210.541 36.0205C209.652 36.909 209.208 37.9454 209.208 39.1301V86.8863C209.208 88.0709 209.652 89.1075 210.541 89.996C211.429 90.8845 212.466 91.3287 213.651 91.3287H220.612C221.797 91.3287 222.834 90.8845 223.722 89.996C224.611 89.1075 225.055 88.0709 225.055 86.8863V56.0113C225.055 53.0497 225.5 51.0136 226.425 49.8289C227.351 48.6813 228.906 48.089 231.165 48.089C233.424 48.089 234.979 48.6813 235.904 49.8289C236.83 50.9766 237.274 53.0497 237.274 56.0113V86.8863C237.274 88.0709 237.719 89.1075 238.607 89.996C239.496 90.8845 240.533 91.3287 241.718 91.3287H248.679C249.864 91.3287 250.9 90.8845 251.789 89.996C252.678 89.1075 253.122 88.0709 253.122 86.8863V56.0113C253.122 48.4962 251.789 42.7951 249.16 38.8709C246.494 34.9839 242.606 33.0219 237.46 33.0219ZM303.812 39.2411C306.812 43.3134 308.293 49.2736 308.293 57.159V68.3391C308.293 76.2244 306.812 82.1847 303.812 86.2569C300.813 90.3292 296.407 92.3653 290.594 92.3653C287.224 92.3653 284.336 91.6619 281.929 90.2181C281.189 89.7739 280.522 89.2186 279.893 88.6262C279.671 89.1075 279.374 89.5888 278.93 89.996C278.041 90.8845 277.005 91.3287 275.82 91.3287H268.859C267.674 91.3287 266.637 90.8845 265.748 89.996C264.86 89.1075 264.415 88.0709 264.415 86.8863V17.7325C264.415 16.5478 264.86 15.5113 265.748 14.6228C266.637 13.7343 267.674 13.29 268.859 13.29H275.82C277.005 13.29 278.041 13.7343 278.93 14.6228C279.819 15.5113 280.263 16.5478 280.263 17.7325V36.5018C280.781 36.0575 281.337 35.6503 281.966 35.2801C284.373 33.8363 287.224 33.1329 290.631 33.1329C296.444 33.1329 300.85 35.169 303.812 39.2411ZM292.482 55.2709C292.482 52.8276 292.001 51.0136 291.001 49.8289C290.001 48.6813 288.52 48.089 286.484 48.089C285.151 48.089 284.003 48.3111 283.04 48.7183C282.077 49.1256 281.374 49.7549 280.93 50.4953C280.485 51.2727 280.226 52.1612 280.226 53.1238V72.3003C280.226 73.2998 280.448 74.1513 280.93 74.9287C281.374 75.7061 282.077 76.2985 283.04 76.7057C284.003 77.1129 285.114 77.335 286.484 77.335C288.52 77.335 290.038 76.7427 291.001 75.5951C292.001 74.4475 292.482 72.6335 292.482 70.1531V55.2709ZM357.539 34.6878H350.578C349.393 34.6878 348.356 35.132 347.468 36.0205C346.579 36.909 346.135 37.9454 346.135 39.1301V69.4867C346.135 72.3743 345.727 74.4104 344.913 75.5951C344.098 76.7797 342.802 77.3721 341.062 77.3721C338.803 77.3721 337.248 76.8538 336.322 75.8542C335.397 74.8177 334.952 72.8926 334.952 70.005V39.1301C334.952 37.9454 334.508 36.909 333.619 36.0205C332.731 35.132 331.694 34.6878 330.509 34.6878H323.548C322.363 34.6878 321.326 35.132 320.438 36.0205C319.549 36.909 319.105 37.9454 319.105 39.1301V70.005C319.105 77.5942 320.549 83.2213 323.437 86.8863C326.325 90.5513 330.805 92.3653 336.915 92.3653C341.062 92.3653 344.135 90.8104 346.172 87.7007C346.32 88.5522 346.727 89.3296 347.431 89.996C348.319 90.8845 349.356 91.3287 350.541 91.3287H357.502C358.687 91.3287 359.724 90.8845 360.612 89.996C361.501 89.1075 361.945 88.0709 361.945 86.8863V39.1301C361.945 37.9454 361.501 36.909 360.612 36.0205C359.761 35.132 358.724 34.6878 357.539 34.6878ZM419.672 78.4086C418.783 77.5201 417.746 77.0759 416.562 77.0759H404.12V17.7325C404.12 16.5478 403.676 15.5113 402.787 14.6228C401.899 13.7343 400.862 13.29 399.677 13.29H399.566H392.716H380.164C378.979 13.29 377.942 13.7343 377.053 14.6228C376.165 15.5113 375.72 16.5478 375.72 17.7325V23.1004C375.72 24.2851 376.165 25.3216 377.053 26.2101C377.942 27.0986 378.979 27.5429 380.164 27.5429H388.273V77.0759H375.832C374.647 77.0759 373.61 77.5201 372.721 78.4086C371.833 79.2971 371.388 80.3337 371.388 81.5183V86.8863C371.388 88.0709 371.833 89.1075 372.721 89.996C373.61 90.8845 374.647 91.3287 375.832 91.3287H392.716H399.677H416.525C417.709 91.3287 418.746 90.8845 419.635 89.996C420.523 89.1075 420.968 88.0709 420.968 86.8863V81.5183C420.968 80.2967 420.523 79.2601 419.672 78.4086ZM75.021 56.6407L65.4309 54.2344C63.8017 53.8271 62.5798 53.2718 61.6911 52.6425C60.8025 52.0131 60.3582 51.1987 60.3582 50.2362C60.3582 49.1256 60.7284 48.3111 61.506 47.8669C62.2836 47.4226 63.4314 47.1635 64.9866 47.1635C67.4304 47.1635 70.1334 47.6818 73.0955 48.7554L73.6139 48.9775C75.1691 49.4587 76.428 49.6068 77.4648 49.3847C78.4645 49.1626 79.4272 48.4962 80.2418 47.3856L83.6113 42.8691C84.2407 42.0177 84.4629 41.0181 84.2407 39.7964C84.0186 38.6118 83.4261 37.6863 82.4634 37.0569C80.575 35.8724 78.1312 34.9099 75.2061 34.2065C72.2439 33.5031 69.0966 33.17 65.7271 33.17C58.9882 33.17 53.7673 34.5767 50.0646 37.3901C46.3619 40.2037 44.5475 44.6831 44.5475 50.8655C44.5475 56.0484 45.8435 60.0836 48.4354 62.9341C51.0273 65.7847 54.2857 67.7468 58.2476 68.7833L68.5782 71.4118C69.8371 71.782 70.7628 72.2262 71.3553 72.7815C71.9477 73.3369 72.2439 74.0773 72.2439 75.0028C72.2439 76.1874 71.7626 77.0759 70.8369 77.5942C69.8742 78.1125 68.4671 78.3716 66.5787 78.3716C64.8385 78.3716 63.1722 78.1125 61.6171 77.6312C60.0619 77.1499 58.5068 76.4466 56.9887 75.521C55.3595 74.5955 54.0635 74.1143 53.1008 74.1143C52.1011 74.0772 50.9532 74.5585 49.6203 75.521L45.1029 78.7788C44.1032 79.4822 43.6218 80.4448 43.5848 81.6664C43.5478 82.8881 43.881 83.8876 44.5845 84.6651C47.0283 87.1824 50.3238 89.1075 54.4338 90.4032C58.5438 91.6989 62.6538 92.3653 66.7268 92.3653C73.9101 92.3653 79.2421 90.9215 82.7967 88.0339C86.3513 85.1463 88.1286 80.5928 88.1286 74.3364C88.1286 69.0055 86.9437 64.9703 84.537 62.2308C82.1302 59.4913 78.9829 57.6032 75.021 56.6407Z" fill="white"/>
</svg>
