<svg width="62" height="24" viewBox="0 0 62 24" fill="none" xmlns="http://www.w3.org/2000/svg">
<path fill-rule="evenodd" clip-rule="evenodd" d="M11.5029 3.12582e-07C5.15161 -0.00146453 0.00146527 5.14575 4.2542e-07 11.4971C-0.00170856 17.8484 5.14575 22.9985 11.4968 23L50.4968 23.0103C56.8481 23.012 61.9983 17.8645 62 11.5132C62.0015 5.16211 56.8542 0.0119632 50.5029 0.0102542L11.5029 3.12582e-07ZM49.4978 20.01C54.1921 20.0112 57.9988 16.2068 58 11.5122C58.0012 6.81787 54.1965 3.01123 49.5022 3.01001C44.8079 3.00879 41.0012 6.81348 41 11.5078C40.9988 16.2021 44.8032 20.0088 49.4978 20.01Z" fill="white"/>
</svg>
