<?xml version="1.0" encoding="UTF-8"?><svg id="uuid-f710fccf-3811-4926-9523-4f043a235d97" xmlns="http://www.w3.org/2000/svg" viewBox="0 0 400 400"><defs><style>.uuid-267ef8b1-d563-4841-90fa-c486c87553ee{fill:#1e0f41;}.uuid-d75fecd9-7afc-4a73-af59-75f588522268{fill:#87ff87;}.uuid-5745867e-602a-4c61-9701-b5aaa03aa506{fill:none;}.uuid-97f4d09c-a356-4038-8642-4093c1cc1f90{fill:#00d29b;}</style></defs><rect class="uuid-5745867e-602a-4c61-9701-b5aaa03aa506" width="400" height="400"/><circle class="uuid-d75fecd9-7afc-4a73-af59-75f588522268" cx="251.03" cy="208.68" r="48.17"/><path class="uuid-97f4d09c-a356-4038-8642-4093c1cc1f90" d="m198.57,86.35c9,0,16.3,7.3,16.3,16.3s-7.3,16.3-16.3,16.3-16.3-7.3-16.3-16.3,7.3-16.3,16.3-16.3Zm21.74,16.3c0-12-9.73-21.72-21.72-21.72h-76.11c-11.98.03-21.67,9.75-21.67,21.72h0c0,12.01,9.73,21.74,21.72,21.74h76.05c11.98-.03,21.67-9.76,21.67-21.74h.06Z"/><path class="uuid-267ef8b1-d563-4841-90fa-c486c87553ee" d="m116.62,301.44h-6.79l-1.2,3.41h-3.58l6.24-16.75h3.86l6.22,16.75h-3.58l-1.18-3.41Zm-.91-2.57l-2.5-7.15-2.5,7.15h4.99Zm19.66-9.61c1.36,1.02,2.23,2.39,2.62,4.12h-3.55c-.34-.77-.87-1.38-1.6-1.84-.73-.46-1.59-.68-2.58-.68s-1.84.22-2.59.67c-.75.45-1.34,1.09-1.75,1.92-.42.83-.62,1.81-.62,2.93,0,1.78.48,3.16,1.43,4.15.95.99,2.25,1.49,3.9,1.49,1.22,0,2.26-.36,3.13-1.08.87-.72,1.44-1.72,1.69-3h-5.74v-2.42h8.57v3.26c-.24,1.12-.71,2.15-1.4,3.1-.7.94-1.61,1.7-2.74,2.27-1.13.57-2.42.85-3.88.85-1.66,0-3.13-.36-4.4-1.09-1.27-.73-2.26-1.74-2.95-3.05-.7-1.3-1.04-2.8-1.04-4.48s.35-3.17,1.04-4.48c.7-1.3,1.68-2.32,2.94-3.06,1.26-.74,2.73-1.1,4.39-1.1,2.06,0,3.78.51,5.14,1.52Zm-8.1-3.66c-.7-.7-1.04-1.66-1.04-2.88v-.29h1.68c0,1.18.72,1.78,2.16,1.78s2.16-.59,2.16-1.78h1.68v.29c0,1.22-.35,2.18-1.04,2.88-.7.7-1.63,1.06-2.8,1.06s-2.1-.35-2.8-1.06Zm21.16,2.3l4.54,13.42,4.56-13.42h3.62l-6,16.94h-4.34l-6-16.94h3.62Zm17.91,2.69v4.39h6v2.59h-6v4.56h6.72v2.71h-10.1v-16.94h10.1v2.69h-6.72Zm27.43-1.33c1.36,1.02,2.23,2.39,2.62,4.12h-3.55c-.34-.77-.87-1.38-1.6-1.84-.73-.46-1.59-.68-2.58-.68s-1.84.22-2.59.67c-.75.45-1.34,1.09-1.75,1.92-.42.83-.62,1.81-.62,2.93,0,1.78.48,3.16,1.43,4.15.95.99,2.25,1.49,3.9,1.49,1.22,0,2.26-.36,3.13-1.08.87-.72,1.44-1.72,1.69-3h-5.74v-2.42h8.57v3.26c-.24,1.12-.71,2.15-1.4,3.1-.7.94-1.61,1.7-2.74,2.27-1.13.57-2.42.85-3.88.85-1.66,0-3.13-.36-4.4-1.09-1.27-.73-2.26-1.74-2.95-3.05-.7-1.3-1.04-2.8-1.04-4.48s.35-3.17,1.04-4.48c.7-1.3,1.68-2.32,2.94-3.06,1.26-.74,2.73-1.1,4.39-1.1,2.06,0,3.78.51,5.14,1.52Zm8.87-1.36v9.94c0,1.33.29,2.32.88,2.99s1.43,1,2.53,1,1.92-.33,2.51-1,.88-1.66.88-2.99v-9.94h3.36v9.94c0,1.57-.29,2.89-.88,3.97s-1.39,1.88-2.42,2.41c-1.03.53-2.21.79-3.52.79-2.03,0-3.66-.61-4.87-1.82s-1.82-3-1.82-5.35v-9.94h3.36Zm.06-4.26c.3-.3.65-.44,1.07-.44.45,0,.82.15,1.1.44.29.3.43.66.43,1.09s-.14.77-.43,1.07c-.29.3-.66.44-1.1.44-.42,0-.77-.15-1.07-.44-.3-.3-.44-.65-.44-1.07s.15-.8.44-1.09Zm4.52,0c.29-.3.65-.44,1.08-.44s.8.15,1.09.44c.3.3.44.66.44,1.09s-.15.77-.44,1.07c-.3.3-.66.44-1.09.44s-.79-.15-1.08-.44c-.29-.3-.43-.65-.43-1.07s.14-.8.43-1.09Zm10.95,4.26l4.54,13.42,4.56-13.42h3.62l-6,16.94h-4.34l-6-16.94h3.62Zm17.91,2.69v4.39h6v2.59h-6v4.56h6.72v2.71h-10.1v-16.94h10.1v2.69h-6.72Zm23.88,14.26h-3.38l-7.58-11.52v11.52h-3.38v-16.94h3.38l7.58,11.62v-11.62h3.38v16.94Zm6.8-2.59h5.69v2.59h-9.07v-16.94h3.38v14.35Zm11.01-14.35v16.94h-3.38v-16.94h3.38Zm-2.77-4.26c.3-.3.65-.44,1.07-.44s.8.15,1.09.44c.3.3.44.66.44,1.09s-.15.77-.44,1.07c-.3.3-.66.44-1.09.44s-.77-.15-1.07-.44c-.3-.3-.44-.65-.44-1.07s.15-.8.44-1.09Zm12.76,12.59l7.18,8.62h-4.1l-6.26-7.75v7.75h-3.38v-16.94h3.38v7.61l6.29-7.61h4.08l-7.18,8.33Zm-91.86-151.25c.29.88,1.09,1.48,2.02,1.52.03,0,.06,0,.09,0,.89,0,1.69-.53,2.04-1.35l8.25-19.38c.48-1.13-.04-2.43-1.17-2.91-1.13-.48-2.43.05-2.91,1.17l-5.95,13.98-2.35-7.08c-.39-1.16-1.64-1.79-2.81-1.41-1.16.39-1.79,1.64-1.41,2.8l4.2,12.65Zm4.13,11.01c11.44,0,20.74-9.6,20.74-21.4s-9.3-21.4-20.74-21.4c-.02,0-.04,0-.06,0-11.41.03-20.68,9.62-20.68,21.4,0,2.48.43,4.95,1.27,7.34,2.98,8.41,10.8,14.06,19.47,14.06Zm0-38.36s.04,0,.05,0c8.97.03,16.25,7.63,16.25,16.96s-7.31,16.96-16.3,16.96c-6.79,0-12.93-4.46-15.28-11.11-.68-1.91-1.02-3.88-1.02-5.85,0-9.35,7.31-16.96,16.3-16.96Zm71.62,119.91h-5.36v-97.56c0-3.87-3.08-7.03-6.86-7.03h-13.52c.85-3.81,1.33-7.72,1.35-11.7v-25.23c0-1.23-.99-2.22-2.21-2.22h-90.04c-1.22,0-2.22.99-2.22,2.22v24.94c0,.1,0,.21.01.4.03,3.94.5,7.82,1.34,11.59h-13.51c-3.78,0-6.86,3.15-6.86,7.03v97.56h-5.36c-1.99,0-3.62,1.62-3.62,3.62v3.34c0,5.13,4.17,9.3,9.3,9.3h131.88c5.13,0,9.3-4.17,9.3-9.3v-3.34c0-2-1.62-3.62-3.62-3.62Zm-12.23-100.15c1.34,0,2.42,1.16,2.42,2.59v97.56h-4.85v-92.76c0-1.23-.99-2.22-2.22-2.22h-11.96c.72-1.69,1.33-3.42,1.88-5.18h14.72Zm-16.59-39.15v22.8s-.01.27-.01.27c-.12,18.01-9.82,34.64-25.94,44.5l-16.85,10.3-16.85-10.3c-16.11-9.85-25.81-26.47-25.94-44.48v-23.08s85.59,0,85.59,0Zm-.03,44.39c-.33.77-.68,1.52-1.04,2.27.36-.75.72-1.5,1.04-2.27Zm-104.58-2.65c0-1.43,1.09-2.59,2.42-2.59h14.71c.81,2.58,1.79,5.1,2.97,7.53-.38-.78-.75-1.56-1.08-2.35h-11.95c-1.22,0-2.22.99-2.22,2.22v92.76h-4.85v-97.56Zm9.28,7.03h11.88c4.83,9.04,12.15,16.88,21.49,22.59l18,11c.36.22.76.33,1.16.33s.8-.11,1.16-.33l18-11c9.33-5.7,16.65-13.54,21.48-22.59h11.89v90.54h-105.07v-90.54Zm123.33,97.5c0,2.68-2.18,4.86-4.86,4.86h-131.88c-2.68,0-4.86-2.18-4.86-4.86v-2.52h141.6v2.52Zm-25.17-43.04c-15.36,0-27.85,12.5-27.85,27.85,0,1.23.99,2.22,2.22,2.22s2.22-.99,2.22-2.22c0-12.91,10.5-23.42,23.42-23.42,1.22,0,2.22-.99,2.22-2.22s-.99-2.22-2.22-2.22Zm0-12.6c-22.31,0-40.45,18.15-40.45,40.45,0,1.23.99,2.22,2.22,2.22s2.22-.99,2.22-2.22c0-19.86,16.16-36.01,36.01-36.01,1.22,0,2.22-.99,2.22-2.22s-.99-2.22-2.22-2.22Zm0-8.16c1.22,0,2.22-.99,2.22-2.22s-.99-2.22-2.22-2.22c-29.25,0-53.05,23.8-53.05,53.05,0,1.23.99,2.22,2.22,2.22s2.22-.99,2.22-2.22c0-26.81,21.81-48.61,48.61-48.61Zm0,33.36c-8.41,0-15.26,6.84-15.26,15.26,0,1.23.99,2.22,2.22,2.22s2.22-.99,2.22-2.22c0-5.96,4.85-10.82,10.82-10.82,1.22,0,2.22-.99,2.22-2.22s-.99-2.22-2.22-2.22Zm-1.89,11.42c-1.23,0-2.22.99-2.22,2.22s.99,2.22,2.22,2.22,2.22-.99,2.22-2.22-.99-2.22-2.22-2.22Z"/></svg>