<?xml version="1.0" encoding="UTF-8"?><svg id="uuid-3d0f84c3-cb92-42f0-b9da-71fd5274b073" xmlns="http://www.w3.org/2000/svg" viewBox="0 0 400 400"><defs><style>.uuid-cd6f060b-1602-44aa-b61c-cdd1d3db8094{fill:#1e0f41;}.uuid-003a18f5-cb1e-48dd-b801-bd35b3291b66{fill:#87ff87;}.uuid-b2d57e7e-a56f-4d56-9277-d98efd40445f{fill:none;}.uuid-d6a1bd9d-e8ea-4cd4-8d7d-c81d4bb5e928{fill:#00d29b;}</style></defs><rect class="uuid-b2d57e7e-a56f-4d56-9277-d98efd40445f" width="400" height="400"/><circle class="uuid-003a18f5-cb1e-48dd-b801-bd35b3291b66" cx="251.03" cy="208.68" r="48.17"/><path class="uuid-d6a1bd9d-e8ea-4cd4-8d7d-c81d4bb5e928" d="m198.57,86.35c9,0,16.3,7.3,16.3,16.3s-7.3,16.3-16.3,16.3-16.3-7.3-16.3-16.3,7.3-16.3,16.3-16.3Zm21.74,16.3c0-12-9.73-21.72-21.72-21.72h-76.11c-11.98.03-21.67,9.75-21.67,21.72h0c0,12.01,9.73,21.74,21.72,21.74h76.05c11.98-.03,21.67-9.76,21.67-21.74h.06Z"/><path class="uuid-cd6f060b-1602-44aa-b61c-cdd1d3db8094" d="m99.77,300.79c-.71,1.28-1.72,2.28-3.06,2.99-1.34.71-2.92,1.07-4.76,1.07h-6.02v-16.94h6.02c1.84,0,3.43.35,4.76,1.04,1.34.7,2.36,1.68,3.06,2.95.7,1.27,1.06,2.76,1.06,4.45s-.35,3.16-1.06,4.44Zm-3.88-.41c1-.96,1.5-2.3,1.5-4.03s-.5-3.1-1.5-4.06-2.41-1.44-4.23-1.44h-2.35v10.97h2.35c1.82,0,3.23-.48,4.23-1.44Zm11.02-12.48v16.94h-3.38v-16.94h3.38Zm-2.77-4.26c.3-.3.65-.44,1.07-.44s.79.15,1.09.44c.29.3.44.66.44,1.09s-.15.77-.44,1.07c-.3.3-.66.44-1.09.44s-.77-.15-1.07-.44-.44-.65-.44-1.07.15-.8.44-1.09Zm15.41,4.26v11.95c0,1.63-.45,2.9-1.36,3.8-.9.9-2.16,1.36-3.76,1.36-1.73,0-3.1-.5-4.1-1.49-1.01-.99-1.51-2.41-1.51-4.25h3.34c0,.86.18,1.53.54,1.99.36.46.89.7,1.6.7.64,0,1.11-.19,1.42-.56.3-.38.46-.89.46-1.55v-11.95h3.38Zm6.72,0v16.94h-3.38v-16.94h3.38Zm-2.77-4.26c.29-.3.65-.44,1.07-.44s.8.15,1.09.44c.3.3.45.66.45,1.09s-.15.77-.45,1.07c-.29.3-.66.44-1.09.44s-.77-.15-1.07-.44c-.3-.3-.45-.65-.45-1.07s.15-.8.45-1.09Zm17.36,4.26v2.69h-4.68v14.26h-3.38v-14.26h-4.66v-2.69h12.72Zm10.42,13.54h-6.79l-1.2,3.41h-3.58l6.24-16.75h3.86l6.22,16.75h-3.58l-1.18-3.41Zm-.91-2.57l-2.5-7.15-2.5,7.15h4.99Zm10.89,3.38h5.69v2.59h-9.07v-16.94h3.38v14.35Zm16.32-3.7v6.29h-3.38v-16.94h6.17c2,0,3.51.48,4.52,1.44s1.52,2.26,1.52,3.91-.52,2.9-1.57,3.86c-1.05.96-2.54,1.44-4.47,1.44h-2.79Zm5.4-5.3c0-.85-.23-1.5-.7-1.94-.46-.45-1.22-.67-2.28-.67h-2.42v5.21h2.42c1.98,0,2.98-.86,2.98-2.59Zm14.54,8.18h-6.79l-1.2,3.41h-3.58l6.24-16.75h3.86l6.22,16.75h-3.58l-1.18-3.41Zm-.91-2.57l-2.5-7.15-2.5,7.15h4.99Zm11.01,3.24h7.9v2.74h-11.64v-2.59l7.73-11.64h-7.61v-2.71h11.42v2.59l-7.8,11.62Zm21.07-.67h-6.79l-1.2,3.41h-3.58l6.24-16.75h3.86l6.22,16.75h-3.58l-1.18-3.41Zm-.91-2.57l-2.5-7.15-2.5,7.15h4.99Zm16.34,5.98l-3.96-6.6h-1.49v6.6h-3.38v-16.94h6.46c1.97,0,3.47.48,4.5,1.44,1.03.96,1.55,2.22,1.55,3.79,0,1.28-.36,2.35-1.07,3.22-.71.86-1.74,1.44-3.08,1.73l4.22,6.77h-3.74Zm-5.45-8.93h2.79c1.94,0,2.9-.86,2.9-2.57,0-.82-.24-1.45-.71-1.91s-1.2-.68-2.2-.68h-2.79v5.16Zm15.06,6.34h5.69v2.59h-9.07v-16.94h3.38v14.35Zm18.58-.82h-6.79l-1.2,3.41h-3.58l6.24-16.75h3.86l6.22,16.75h-3.58l-1.18-3.41Zm-.91-2.57l-2.5-7.15-2.5,7.15h4.99Zm25.77-10.78v16.75h-3.36v-11.69l-4.3,11.69h-2.93l-4.3-11.64v11.64h-3.38v-16.75h4.1l5.09,12.6,4.99-12.6h4.08Zm13.41,13.34h-6.79l-1.2,3.41h-3.58l6.24-16.75h3.86l6.22,16.75h-3.58l-1.18-3.41Zm-.91-2.57l-2.5-7.15-2.5,7.15h4.99ZM124.15,122.8c-.17,0-.33-.02-.5-.05-.17-.03-.33-.09-.48-.16-.16-.05-.31-.14-.45-.22-.14-.1-.28-.21-.4-.33-.12-.12-.23-.26-.33-.4-.09-.14-.17-.29-.22-.45-.07-.16-.12-.31-.16-.48s-.05-.33-.05-.5.02-.35.05-.5c.03-.17.09-.33.16-.48.05-.17.14-.31.22-.45.1-.16.21-.28.33-.4.6-.6,1.5-.88,2.33-.71.17.03.33.09.48.14.17.07.31.16.45.24.16.1.28.21.4.33.12.12.23.24.33.4.09.14.17.28.24.45.05.16.1.31.14.48.03.16.05.33.05.5,0,.67-.28,1.35-.76,1.83-.12.12-.24.22-.4.33-.14.09-.28.17-.45.22-.16.07-.31.12-.48.16-.16.03-.33.05-.5.05Zm15.58,0h0c1.43,0,2.59-1.16,2.59-2.59h0c0-1.43-1.16-2.59-2.59-2.59h0c-1.43,0-2.59,1.16-2.59,2.59s1.16,2.59,2.59,2.59Zm21.32,8.04h22.39c1.11,0,2.01.9,2.01,2.01s-.9,2.01-2.01,2.01h-22.39c-1.11,0-2.01-.9-2.01-2.01s.9-2.01,2.01-2.01Zm22.39,14.73h-22.39c-1.11,0-2.01.9-2.01,2.01s.9,2.01,2.01,2.01h22.39c1.11,0,2.01-.9,2.01-2.01s-.9-2.01-2.01-2.01Zm0,14.73h-22.39c-1.11,0-2.01.9-2.01,2.01s.9,2.01,2.01,2.01h22.39c1.11,0,2.01-.9,2.01-2.01s-.9-2.01-2.01-2.01Zm84.78-64.49v103.67c0,.65-.31,1.25-.83,1.63-.35.25-.76.38-1.18.38-.21,0-.42-.03-.63-.1l-69.63-22.93c-.16.04-.33.07-.51.07h-4.6v35.06h1.06c3.27,0,5.93,2.66,5.93,5.93v4.23c0,3.27-2.66,5.93-5.93,5.93h-30.36c-3.27,0-5.93-2.66-5.93-5.93v-4.23c0-3.27,2.66-5.93,5.93-5.93h1.06v-35.06h-1.31c-16.28,0-29.52-13.24-29.52-29.52v-2.85c0-16.28,13.24-29.52,29.52-29.52h34.16c.25,0,.48.05.7.13l69.43-22.87c.61-.2,1.29-.1,1.81.28.52.38.83.98.83,1.63Zm-79.39,121.81h-27.29c-1.05,0-1.9.85-1.9,1.9v4.23c0,1.05.85,1.9,1.9,1.9h30.36c1.05,0,1.9-.85,1.9-1.9v-4.23c0-1.05-.85-1.9-1.9-1.9h-3.07Zm-2.01-4.02v-35.06h-20.2v35.06h20.2Zm6.62-92.94h-32.15c-14.06,0-25.5,11.44-25.5,25.5v2.85c0,14.06,11.44,25.5,25.5,25.5h32.15v-53.85Zm55.66,71.07v-88.17l-51.64,17.01v54.15l51.64,17.01Zm15.1-93.14l-11.07,3.65v90.82l11.07,3.65v-98.11Zm22.13,8.64h-18.11v5.18h15.52v15.6h-15.52v5.18h15.52v115.42H116.26v-115.42h18.52c.91-1.84,2-3.58,3.25-5.18h-21.71v-15.6h93.06l15.74-5.18h-51.94c-.09,0-.17-.02-.26-.02h-59.26c-1.43,0-2.59,1.16-2.59,2.59v141.41c0,1.43,1.16,2.59,2.59,2.59h172.67c1.43,0,2.59-1.16,2.59-2.59V109.81c0-1.43-1.16-2.59-2.59-2.59Z"/></svg>