<?xml version="1.0" encoding="UTF-8"?><svg id="uuid-9be43432-8500-4183-aae4-59b1bc3d49ea" xmlns="http://www.w3.org/2000/svg" viewBox="0 0 400 400"><defs><style>.uuid-32642b39-987a-4c0b-b4d8-307ce23c800b{fill:#1e0f41;}.uuid-64da2790-6fc0-4a01-9439-9dc5b0828be1{fill:#87ff87;}.uuid-7d5826f9-909a-4055-8f49-e253cf6820c8{fill:none;}.uuid-c50e9a0d-527f-424f-8fac-cada967d7fbd{fill:#00d29b;}</style></defs><rect class="uuid-7d5826f9-909a-4055-8f49-e253cf6820c8" width="400" height="400"/><circle class="uuid-64da2790-6fc0-4a01-9439-9dc5b0828be1" cx="251.03" cy="208.68" r="48.17"/><path class="uuid-c50e9a0d-527f-424f-8fac-cada967d7fbd" d="m198.57,86.35c9,0,16.3,7.3,16.3,16.3s-7.3,16.3-16.3,16.3-16.3-7.3-16.3-16.3,7.3-16.3,16.3-16.3Zm21.74,16.3c0-12-9.73-21.72-21.72-21.72h-76.11c-11.98.03-21.67,9.75-21.67,21.72h0c0,12.01,9.73,21.74,21.72,21.74h76.05c11.98-.03,21.67-9.76,21.67-21.74h.06Z"/><path class="uuid-32642b39-987a-4c0b-b4d8-307ce23c800b" d="m166.19,122h-23.1c-1.28,0-2.33-1.04-2.33-2.33v-11.55c0-7.9,6.23-14.32,13.89-14.32s13.89,6.43,13.89,14.32l-.03,11.56c0,1.28-1.04,2.32-2.33,2.32Zm-20.78-4.65h18.46l.02-9.23c0-5.33-4.14-9.67-9.24-9.67s-9.24,4.34-9.24,9.67v9.23Zm-4.92,124.82h-9.3c-1.28,0-2.33-1.04-2.33-2.33v-106.15c0-3.85,3.13-6.98,6.98-6.98h30.33c.62,0,1.21.25,1.65.68.44.44.68,1.03.68,1.65l-.02,9.3c0,1.28-1.04,2.32-2.33,2.32h-23.34v99.17c0,1.28-1.04,2.33-2.33,2.33Zm-6.98-4.65h4.65v-99.17c0-1.28,1.04-2.33,2.33-2.33h23.34v-4.65s-27.99,0-27.99,0c-1.28,0-2.33,1.04-2.33,2.33v103.82Zm135.31,4.65h-9.3c-1.28,0-2.33-1.04-2.33-2.33v-99.17h-16.6c-1.28,0-2.33-1.04-2.33-2.33v-9.3c0-1.28,1.04-2.33,2.33-2.33h23.58c3.85,0,6.98,3.13,6.98,6.98v106.15c0,1.28-1.04,2.33-2.33,2.33Zm-6.98-4.65h4.65v-103.82c0-1.28-1.04-2.33-2.33-2.33h-21.25v4.65h16.6c1.28,0,2.33,1.04,2.33,2.33v99.17Zm-21.25-7.1h-74.57c-.62,0-1.21-.25-1.64-.68-.44-.44-.68-1.03-.68-1.65l.03-45.85.14-62.57c0-.12,0-.24.03-.35v-11.2c0-5.3-4.09-9.61-9.13-9.67h-.12c-1.28,0-2.31-1.05-2.31-2.33,0-1.33,1.14-2.35,2.47-2.32l69.31.39c10.37.06,18.8,8.82,18.8,19.53v114.37c0,1.28-1.04,2.33-2.33,2.33Zm-72.24-4.65h69.92v-112.05c0-8.16-6.36-14.83-14.18-14.88h0l-59.14-.33c2.24,2.54,3.6,5.92,3.6,9.61v11.55c0,.12,0,.24-.03.36l-.16,105.73Zm101.43,28.03h-139.54c-5.12,0-9.29-4.17-9.29-9.29v-4.67c0-1.28,1.04-2.33,2.33-2.33h153.46c1.28,0,2.33,1.04,2.33,2.33v4.67c0,5.12-4.16,9.29-9.28,9.29Zm-144.18-11.63v2.34c0,2.56,2.08,4.64,4.64,4.64h139.54c2.56,0,4.63-2.08,4.63-4.64v-2.34H125.59Zm69.34-68.38c.91-.91.91-2.38,0-3.29l-7.68-7.68,7.68-7.68c.91-.91.91-2.38,0-3.29-.91-.91-2.38-.91-3.29,0l-9.33,9.33c-.44.44-.68,1.03-.68,1.64s.25,1.21.68,1.64l9.33,9.33c.45.45,1.05.68,1.64.68s1.19-.23,1.64-.68Zm20.18,0l9.33-9.33c.44-.44.68-1.03.68-1.64s-.25-1.21-.68-1.64l-9.33-9.33c-.91-.91-2.38-.91-3.29,0-.91.91-.91,2.38,0,3.29l7.68,7.68-7.68,7.68c-.91.91-.91,2.38,0,3.29.45.45,1.05.68,1.64.68s1.19-.23,1.64-.68Zm-13.75,3.42l8.01-27.48c.36-1.23-.35-2.52-1.58-2.88-1.23-.35-2.52.35-2.88,1.58l-8.01,27.48c-.36,1.23.35,2.52,1.58,2.88.22.06.44.09.65.09,1.01,0,1.93-.66,2.23-1.67Zm-140.16,110.69l-5.74,11.02v5.93h-3.41v-5.93l-5.76-11.02h3.89l3.6,7.42,3.6-7.42h3.82Zm10.31,13.54h-6.79l-1.2,3.41h-3.58l6.24-16.75h3.86l6.22,16.75h-3.58l-1.18-3.41Zm-.91-2.57l-2.5-7.15-2.5,7.15h4.99Zm11.01,3.24h7.9v2.74h-11.64v-2.59l7.73-11.64h-7.61v-2.71h11.42v2.59l-7.8,11.62Zm14-14.21v16.94h-3.38v-16.94h3.38Zm6.79,14.35h5.69v2.59h-9.07v-16.94h3.38v14.35Zm11.01-14.35v16.94h-3.38v-16.94h3.38Zm21.67.19v16.75h-3.36v-11.69l-4.3,11.69h-2.93l-4.3-11.64v11.64h-3.38v-16.75h4.1l5.09,12.6,4.99-12.6h4.08Zm19.8,16.75l-2.59-3.02c-.13.32-.24.57-.34.74-.29.74-.79,1.33-1.51,1.78-.72.45-1.56.67-2.52.67-1.07,0-2.01-.22-2.82-.67-.81-.45-1.43-1.06-1.86-1.84-.43-.78-.65-1.66-.65-2.65s.19-1.83.56-2.57c.38-.74.89-1.31,1.54-1.72.65-.41,1.37-.63,2.17-.66l-.29-.43c-.32-.45-.57-.89-.74-1.33-.18-.44-.26-.93-.26-1.48,0-.69.18-1.33.54-1.93.36-.6.9-1.08,1.61-1.45.71-.37,1.56-.55,2.56-.55,1.42,0,2.52.32,3.3.96s1.28,1.46,1.5,2.47c.16.48.24.99.24,1.54l-.02.46h-3.14c0-.4-.02-.67-.05-.82-.02-.58-.18-1.02-.48-1.33s-.73-.47-1.27-.47c-.5,0-.89.14-1.18.43s-.43.64-.43,1.06c0,.37.07.69.22.96.14.27.38.61.72,1.01l8.62,10.85h-3.41Zm-5.24-3.3c.44-.42.66-.97.66-1.64s-.25-1.29-.76-1.75-1.1-.7-1.79-.7-1.2.2-1.62.6-.64.97-.64,1.7.24,1.32.71,1.76c.47.44,1.05.66,1.74.66s1.25-.21,1.69-.64Zm37.74-13.64l-4.15,16.94h-4.18l-3.17-12.29-3.19,12.29h-4.15l-4.15-16.94h3.67l2.59,13.13,3.36-13.13h3.72l3.38,13.13,2.59-13.13h3.67Zm5.53,2.69v4.39h6v2.59h-6v4.56h6.72v2.71h-10.1v-16.94h10.1v2.69h-6.72Zm21.44,6.97c.62.76.92,1.65.92,2.68,0,1.42-.48,2.55-1.43,3.37-.95.82-2.33,1.24-4.14,1.24h-7.27v-16.94h7.13c1.71,0,3.03.38,3.95,1.13.92.75,1.38,1.81,1.38,3.17,0,1.06-.28,1.92-.83,2.59-.55.67-1.28,1.11-2.17,1.32,1.02.21,1.84.69,2.46,1.45Zm-8.53-2.56h3.05c.85,0,1.49-.19,1.93-.56.44-.38.66-.92.66-1.62s-.22-1.25-.65-1.63c-.43-.38-1.1-.58-1.99-.58h-3v4.39Zm5.28,6.49c.48-.39.72-.96.72-1.72s-.24-1.33-.73-1.74c-.49-.41-1.18-.61-2.08-.61h-3.19v4.66h3.22c.9,0,1.58-.2,2.06-.59Zm24.77-12.24c1.36,1.02,2.23,2.39,2.62,4.12h-3.55c-.34-.77-.87-1.38-1.6-1.84-.73-.46-1.59-.68-2.58-.68s-1.84.22-2.59.67c-.75.45-1.34,1.09-1.75,1.92-.42.83-.62,1.81-.62,2.93,0,1.78.48,3.16,1.43,4.15.95.99,2.25,1.49,3.9,1.49,1.22,0,2.26-.36,3.13-1.08.87-.72,1.44-1.72,1.69-3h-5.74v-2.42h8.57v3.26c-.24,1.12-.71,2.15-1.4,3.1-.7.94-1.61,1.7-2.74,2.27-1.13.57-2.42.85-3.88.85-1.66,0-3.13-.36-4.4-1.09-1.27-.73-2.26-1.74-2.95-3.05-.7-1.3-1.04-2.8-1.04-4.48s.35-3.17,1.04-4.48c.7-1.3,1.68-2.32,2.94-3.06,1.26-.74,2.73-1.1,4.39-1.1,2.06,0,3.78.51,5.14,1.52Zm9.03,1.33v4.39h6v2.59h-6v4.56h6.72v2.71h-10.1v-16.94h10.1v2.69h-6.72Zm12.91,11.66h5.69v2.59h-9.07v-16.94h3.38v14.35Zm11.01-14.35v16.94h-3.38v-16.94h3.38Zm-2.77-4.26c.3-.3.65-.44,1.07-.44s.8.15,1.09.44c.3.3.44.66.44,1.09s-.15.77-.44,1.07c-.3.3-.66.44-1.09.44s-.77-.15-1.07-.44c-.3-.3-.44-.65-.44-1.07s.15-.8.44-1.09Zm16.92,18.96c-.43.73-1.07,1.31-1.92,1.75-.85.44-1.88.66-3.1.66s-2.27-.2-3.22-.61c-.94-.41-1.7-1-2.27-1.76-.57-.77-.89-1.66-.97-2.69h3.6c.08.69.36,1.26.83,1.72.47.46,1.1.68,1.88.68.7,0,1.24-.19,1.62-.56.38-.38.56-.86.56-1.45,0-.53-.15-.96-.46-1.31s-.69-.62-1.15-.83c-.46-.21-1.1-.45-1.92-.72-1.06-.35-1.92-.7-2.59-1.04-.67-.34-1.24-.84-1.72-1.5-.47-.66-.71-1.51-.71-2.57,0-1.46.52-2.6,1.57-3.44,1.05-.84,2.44-1.26,4.16-1.26s3.22.43,4.28,1.3c1.06.86,1.67,2.02,1.81,3.46h-3.65c-.1-.61-.35-1.11-.77-1.5-.42-.39-.98-.59-1.7-.59-.62,0-1.13.16-1.51.49s-.58.8-.58,1.43c0,.5.15.91.44,1.24.3.33.67.6,1.13.8.46.21,1.08.44,1.86.7,1.09.38,1.97.74,2.65,1.08s1.26.84,1.74,1.51c.48.67.72,1.55.72,2.64,0,.86-.22,1.66-.65,2.39Zm-2.03,4.07c.6.42.9,1.06.9,1.94s-.3,1.51-.91,1.93c-.61.42-1.36.64-2.26.64h-3.1v-1.82h2.74c.82,0,1.22-.29,1.22-.86,0-.24-.1-.43-.3-.58-.2-.14-.51-.22-.92-.22h-1.58v-3.02h2.04v1.42c.85-.03,1.57.16,2.17.58Zm16.62-18.77v2.69h-4.68v14.26h-3.38v-14.26h-4.66v-2.69h12.72Zm5.24,0v16.94h-3.38v-16.94h3.38Zm-2.77-4.26c.3-.3.65-.44,1.07-.44s.8.15,1.09.44c.3.3.44.66.44,1.09s-.15.77-.44,1.07c-.3.3-.66.44-1.09.44s-.77-.15-1.07-.44c-.3-.3-.44-.65-.44-1.07s.15-.8.44-1.09Zm15.01,21.2l-3.96-6.6h-1.49v6.6h-3.38v-16.94h6.46c1.97,0,3.47.48,4.5,1.44s1.55,2.22,1.55,3.79c0,1.28-.36,2.35-1.07,3.22-.71.86-1.74,1.44-3.08,1.73l4.22,6.77h-3.74Zm-5.45-8.93h2.78c1.94,0,2.9-.86,2.9-2.57,0-.82-.24-1.45-.71-1.91-.47-.46-1.2-.68-2.2-.68h-2.78v5.16Zm29.94-7.82v16.75h-3.36v-11.69l-4.3,11.69h-2.93l-4.3-11.64v11.64h-3.38v-16.75h4.1l5.09,12.6,4.99-12.6h4.08Zm6.8,2.5v4.39h6v2.59h-6v4.56h6.72v2.71h-10.1v-16.94h10.1v2.69h-6.72Z"/></svg>