<?xml version="1.0" encoding="UTF-8"?><svg id="uuid-f8a0d6ae-173e-40fc-8085-e89a1dd08f80" xmlns="http://www.w3.org/2000/svg" viewBox="0 0 400 400"><defs><style>.uuid-6035c142-a5c8-426a-85d1-e00e3a3f4c52{fill:#1e0f41;}.uuid-8854cf78-8d13-4ab6-bce3-fa05d877799d{fill:#87ff87;}.uuid-00683527-b5fc-49a0-bb99-9caf24315195{fill:none;}.uuid-ed8d4a88-98e9-45b5-8785-721d54504a68{fill:#00d29b;}</style></defs><rect class="uuid-00683527-b5fc-49a0-bb99-9caf24315195" width="400" height="400"/><circle class="uuid-8854cf78-8d13-4ab6-bce3-fa05d877799d" cx="251.03" cy="208.68" r="48.17"/><path class="uuid-ed8d4a88-98e9-45b5-8785-721d54504a68" d="m198.57,86.35c9,0,16.3,7.3,16.3,16.3s-7.3,16.3-16.3,16.3-16.3-7.3-16.3-16.3,7.3-16.3,16.3-16.3Zm21.74,16.3c0-12-9.73-21.72-21.72-21.72h-76.11c-11.98.03-21.67,9.75-21.67,21.72h0c0,12.01,9.73,21.74,21.72,21.74h76.05c11.98-.03,21.67-9.76,21.67-21.74h.06Z"/><path class="uuid-6035c142-a5c8-426a-85d1-e00e3a3f4c52" d="m277.61,130.62H122.24c-1.27,0-2.29-1.03-2.29-2.29v-13.16c0-.24.04-.46.1-.68v-18.4c0-1.27,1.03-2.29,2.29-2.29h32.94c1.27,0,2.29,1.03,2.29,2.29v16.79h23.59v-16.79c0-1.27,1.03-2.29,2.29-2.29h32.94c1.27,0,2.29,1.03,2.29,2.29v16.79h23.59v-16.79c0-1.27,1.03-2.29,2.29-2.29h32.94c1.27,0,2.29,1.03,2.29,2.29v18.41c.07.21.1.44.1.67v13.16c0,1.27-1.03,2.29-2.29,2.29Zm-153.08-4.58h150.79v-10.22c-.06-.2-.1-.42-.1-.64v-16.79h-28.35v16.79c0,1.27-1.03,2.29-2.29,2.29h-28.18c-1.27,0-2.29-1.03-2.29-2.29v-16.79h-28.35v16.79c0,1.27-1.03,2.29-2.29,2.29h-28.18c-1.27,0-2.29-1.03-2.29-2.29v-16.79h-28.35v16.79c0,.24-.04.46-.1.68v10.19Zm75.47,127.76c-.46,0-.91-.14-1.3-.41l-27.92-19.25c-31.74-21.89-50.7-57.97-50.7-96.53v-1.99c0-1.27,1.03-2.29,2.29-2.29h155.37c1.27,0,2.29,1.03,2.29,2.29v1.93c0,38.59-18.98,74.7-50.77,96.58h0s-27.97,19.26-27.97,19.26c-.39.27-.85.4-1.3.4Zm-75.33-115.88c.1,36.94,18.29,71.48,48.71,92.45l26.62,18.35,26.67-18.36h0c30.45-20.96,48.67-55.5,48.78-92.45H124.68Zm77.11,51.11l11.62-15.56c.76-1.01.55-2.45-.47-3.21-1.02-.76-2.45-.55-3.21.47l-9.54,12.79-4.17-7.16c-.64-1.1-2.04-1.46-3.14-.83-1.09.64-1.46,2.04-.83,3.13l5.91,10.16c.39.67,1.08,1.09,1.85,1.14.04,0,.09,0,.13,0,.72,0,1.4-.34,1.84-.92Zm-1.67,17.15c-10.97,0-20.89-6.94-24.68-17.26-1.08-2.95-1.63-5.99-1.63-9.05,0-14.48,11.77-26.27,26.24-26.3.02,0,.04,0,.06,0,14.5,0,26.3,11.8,26.3,26.3s-11.8,26.3-26.3,26.3Zm.05-48.02s-.04,0-.06,0c-11.97,0-21.72,9.74-21.72,21.72,0,2.51.45,5.03,1.35,7.47,3.13,8.52,11.32,14.25,20.37,14.25,11.98,0,21.72-9.74,21.72-21.72s-9.71-21.69-21.67-21.72Zm-.06-2.29h.02-.02Zm-80.42,146.74c-.43.73-1.07,1.31-1.92,1.75-.85.44-1.88.66-3.1.66s-2.27-.2-3.22-.61c-.94-.41-1.7-1-2.27-1.76-.57-.77-.89-1.66-.97-2.69h3.6c.08.69.36,1.26.83,1.72.47.46,1.1.68,1.88.68.7,0,1.24-.19,1.62-.56.38-.38.56-.86.56-1.45,0-.53-.15-.96-.46-1.31s-.69-.62-1.15-.83c-.46-.21-1.1-.45-1.92-.72-1.06-.35-1.92-.7-2.59-1.04-.67-.34-1.24-.84-1.72-1.5-.47-.66-.71-1.51-.71-2.57,0-1.46.52-2.6,1.57-3.44,1.05-.84,2.44-1.26,4.16-1.26s3.22.43,4.28,1.3c1.06.86,1.67,2.02,1.81,3.46h-3.65c-.1-.61-.35-1.11-.77-1.5-.42-.39-.98-.59-1.7-.59-.62,0-1.13.16-1.51.49s-.58.8-.58,1.43c0,.5.15.91.44,1.24.3.33.67.6,1.13.8.46.21,1.08.44,1.86.7,1.09.38,1.97.74,2.65,1.08s1.26.84,1.74,1.51c.48.67.72,1.55.72,2.64,0,.86-.22,1.66-.65,2.39Zm6.78-14.7v16.94h-3.38v-16.94h3.38Zm-2.77-4.26c.3-.3.65-.44,1.07-.44s.8.15,1.09.44c.3.3.44.66.44,1.09s-.15.77-.44,1.07c-.3.3-.66.44-1.09.44s-.77-.15-1.07-.44c-.3-.3-.44-.65-.44-1.07s.15-.8.44-1.09Zm18.1,13.92c.62.76.92,1.65.92,2.68,0,1.42-.48,2.55-1.43,3.37-.95.82-2.33,1.24-4.14,1.24h-7.27v-16.94h7.13c1.71,0,3.03.38,3.95,1.13.92.75,1.38,1.81,1.38,3.17,0,1.06-.28,1.92-.83,2.59-.55.67-1.28,1.11-2.17,1.32,1.02.21,1.84.69,2.46,1.45Zm-8.53-2.56h3.05c.85,0,1.49-.19,1.93-.56.44-.38.66-.92.66-1.62s-.22-1.25-.65-1.63c-.43-.38-1.1-.58-1.99-.58h-3v4.39Zm5.28,6.49c.48-.39.72-.96.72-1.72s-.24-1.33-.73-1.74c-.49-.41-1.18-.61-2.08-.61h-3.19v4.66h3.22c.9,0,1.58-.2,2.06-.59Zm10.27-10.91v4.39h6v2.59h-6v4.56h6.72v2.71h-10.1v-16.94h10.1v2.69h-6.72Zm18.36,14.26l-3.96-6.6h-1.49v6.6h-3.38v-16.94h6.46c1.97,0,3.47.48,4.5,1.44s1.55,2.22,1.55,3.79c0,1.28-.36,2.35-1.07,3.22-.71.86-1.74,1.44-3.08,1.73l4.22,6.77h-3.74Zm-5.45-8.93h2.78c1.94,0,2.9-.86,2.9-2.57,0-.82-.24-1.45-.71-1.91-.47-.46-1.2-.68-2.2-.68h-2.78v5.16Zm29.62-6.66c1.36,1.02,2.23,2.39,2.62,4.12h-3.55c-.34-.77-.87-1.38-1.6-1.84-.73-.46-1.59-.68-2.58-.68s-1.84.22-2.59.67c-.75.45-1.34,1.09-1.75,1.92-.42.83-.62,1.81-.62,2.93,0,1.78.48,3.16,1.43,4.15.95.99,2.25,1.49,3.9,1.49,1.22,0,2.26-.36,3.13-1.08.87-.72,1.44-1.72,1.69-3h-5.74v-2.42h8.57v3.26c-.24,1.12-.71,2.15-1.4,3.1-.7.94-1.61,1.7-2.74,2.27-1.13.57-2.42.85-3.88.85-1.66,0-3.13-.36-4.4-1.09-1.27-.73-2.26-1.74-2.95-3.05-.7-1.3-1.04-2.8-1.04-4.48s.35-3.17,1.04-4.48c.7-1.3,1.68-2.32,2.94-3.06,1.26-.74,2.73-1.1,4.39-1.1,2.06,0,3.78.51,5.14,1.52Zm8.87-1.36v9.94c0,1.33.29,2.32.88,2.99.58.66,1.43,1,2.53,1s1.92-.33,2.51-1c.58-.66.88-1.66.88-2.99v-9.94h3.36v9.94c0,1.57-.29,2.89-.88,3.97s-1.39,1.88-2.42,2.41c-1.03.53-2.21.79-3.52.79-2.03,0-3.66-.61-4.87-1.82s-1.82-3-1.82-5.35v-9.94h3.36Zm.06-4.26c.3-.3.65-.44,1.07-.44.45,0,.82.15,1.1.44.29.3.43.66.43,1.09s-.14.77-.43,1.07c-.29.3-.66.44-1.1.44-.42,0-.77-.15-1.07-.44-.3-.3-.44-.65-.44-1.07s.15-.8.44-1.09Zm4.52,0c.29-.3.65-.44,1.08-.44s.8.15,1.09.44c.3.3.44.66.44,1.09s-.15.77-.44,1.07c-.3.3-.66.44-1.09.44s-.79-.15-1.08-.44c-.29-.3-.43-.65-.43-1.07s.14-.8.43-1.09Zm10.95,4.26l4.54,13.42,4.56-13.42h3.62l-6,16.94h-4.34l-6-16.94h3.62Zm17.91,2.69v4.39h6v2.59h-6v4.56h6.72v2.71h-10.1v-16.94h10.1v2.69h-6.72Zm23.88,14.26h-3.38l-7.58-11.52v11.52h-3.38v-16.94h3.38l7.58,11.62v-11.62h3.38v16.94Zm6.8-2.59h5.69v2.59h-9.07v-16.94h3.38v14.35Zm11.01-14.35v16.94h-3.38v-16.94h3.38Zm-2.77-4.26c.3-.3.65-.44,1.07-.44s.8.15,1.09.44c.3.3.44.66.44,1.09s-.15.77-.44,1.07c-.3.3-.66.44-1.09.44s-.77-.15-1.07-.44c-.3-.3-.44-.65-.44-1.07s.15-.8.44-1.09Zm12.76,12.59l7.18,8.62h-4.1l-6.26-7.75v7.75h-3.38v-16.94h3.38v7.61l6.29-7.61h4.08l-7.18,8.33Z"/></svg>