<?xml version="1.0" encoding="UTF-8"?><svg id="uuid-441b9dff-f326-43ce-a92f-a572b2389256" xmlns="http://www.w3.org/2000/svg" viewBox="0 0 400 400"><defs><style>.uuid-b2eae80e-97e5-40c1-98c8-6ac4247b5d41{fill:#1e0f41;}.uuid-ef30b3a9-b3a2-40f8-89cd-869e0fec756b{fill:#87ff87;}.uuid-3658f393-c98c-4ca0-a06a-6bbc3d60f98d{fill:none;}.uuid-8dc6630e-f7de-40b5-8036-64016cce964d{fill:#00d29b;}</style></defs><rect class="uuid-3658f393-c98c-4ca0-a06a-6bbc3d60f98d" width="400" height="400"/><circle class="uuid-ef30b3a9-b3a2-40f8-89cd-869e0fec756b" cx="251.03" cy="208.68" r="48.17"/><path class="uuid-8dc6630e-f7de-40b5-8036-64016cce964d" d="m198.57,86.35c9,0,16.3,7.3,16.3,16.3s-7.3,16.3-16.3,16.3-16.3-7.3-16.3-16.3,7.3-16.3,16.3-16.3Zm21.74,16.3c0-12-9.73-21.72-21.72-21.72h-76.11c-11.98.03-21.67,9.75-21.67,21.72h0c0,12.01,9.73,21.74,21.72,21.74h76.05c11.98-.03,21.67-9.76,21.67-21.74h.06Z"/><path class="uuid-b2eae80e-97e5-40c1-98c8-6ac4247b5d41" d="m238.61,206.52h-77.21c-.7,0-1.37-.31-1.82-.86-.45-.54-.63-1.26-.5-1.95l5.4-28.29c.21-1.11,1.19-1.92,2.32-1.92h2.69c11.06,0,20.06-9,20.06-20.06,0-4.25-1.33-8.32-3.85-11.78-.52-.72-.6-1.67-.2-2.46.4-.79,1.22-1.29,2.11-1.29h24.78c.89,0,1.7.5,2.11,1.29.4.79.33,1.74-.2,2.46-2.52,3.46-3.85,7.53-3.85,11.78,0,11.06,9,20.06,20.06,20.06h2.69c1.13,0,2.11.81,2.32,1.92l5.4,28.29c.13.69-.05,1.41-.5,1.95-.45.54-1.12.86-1.82.86Zm-74.36-4.72h71.5l-4.5-23.57h-.74c-13.66,0-24.78-11.12-24.78-24.78,0-3.78.85-7.45,2.49-10.81h-16.44c1.64,3.35,2.49,7.02,2.49,10.81,0,13.66-11.12,24.78-24.78,24.78h-.74l-4.5,23.57Zm-24.89,52c-9.97,0-18.08-8.11-18.08-18.08v-72.5c0-1.1.76-2.06,1.83-2.3,1.08-.25,2.17.28,2.65,1.27,3.39,6.98,10.3,11.31,18.03,11.31h23c.7,0,1.37.31,1.82.86.45.54.63,1.26.5,1.95l-12,62.8c-1.63,8.51-9.09,14.69-17.76,14.69Zm-13.36-83.1v65.02c0,7.36,5.99,13.36,13.36,13.36,6.4,0,11.92-4.56,13.12-10.85l11.46-60h-20.14c-6.87,0-13.21-2.77-17.79-7.53Zm43.48,7.53h-25.69c-9.55,0-18.09-5.35-22.28-13.97-1.66-3.42-2.51-7.06-2.51-10.81,0-13.66,11.12-24.78,24.78-24.78h25.69c7.88,0,15.37,3.82,20.03,10.22,3.11,4.27,4.76,9.31,4.76,14.56,0,13.66-11.12,24.78-24.78,24.78Zm-25.69-44.84c-11.06,0-20.06,9-20.06,20.06,0,3.03.68,5.97,2.03,8.74,3.39,6.98,10.3,11.31,18.03,11.31h25.69c11.06,0,20.06-9,20.06-20.06,0-4.25-1.33-8.32-3.85-11.78h0c-3.77-5.18-9.83-8.28-16.21-8.28h-25.69Zm116.84,120.41c-8.66,0-16.13-6.18-17.76-14.69l-12-62.8c-.13-.69.05-1.41.5-1.95.45-.54,1.12-.86,1.82-.86h23c7.73,0,14.63-4.33,18.03-11.31.48-.99,1.57-1.52,2.65-1.27,1.07.25,1.83,1.2,1.83,2.3v72.5c0,9.97-8.11,18.08-18.08,18.08Zm-24.58-75.57l11.46,60c1.2,6.29,6.72,10.85,13.12,10.85,7.36,0,13.36-5.99,13.36-13.36v-65.02c-4.58,4.76-10.92,7.53-17.79,7.53h-20.14Zm20.14,0h-25.69c-13.66,0-24.78-11.12-24.78-24.78,0-5.25,1.64-10.29,4.75-14.56,4.66-6.4,12.15-10.22,20.03-10.22h25.69c13.66,0,24.78,11.12,24.78,24.78,0,3.75-.84,7.39-2.51,10.81-4.19,8.62-12.72,13.97-22.28,13.97Zm-25.69-44.84c-6.37,0-12.43,3.1-16.21,8.28-2.52,3.46-3.85,7.53-3.85,11.78,0,11.06,9,20.06,20.06,20.06h25.69c7.73,0,14.63-4.33,18.03-11.31,1.35-2.77,2.03-5.71,2.03-8.74,0-11.06-9-20.06-20.06-20.06h-25.69Zm-49.24,63.59c-4.45,0-8.07-3.62-8.07-8.07s3.62-8.07,8.07-8.07,8.07,3.62,8.07,8.07-3.62,8.07-8.07,8.07Zm0-11.42c-1.85,0-3.35,1.5-3.35,3.35s1.5,3.35,3.35,3.35,3.35-1.5,3.35-3.35-1.5-3.35-3.35-3.35Zm18.73,11.42c-4.45,0-8.07-3.62-8.07-8.07s3.62-8.07,8.07-8.07,8.07,3.62,8.07,8.07-3.62,8.07-8.07,8.07Zm0-11.42c-1.85,0-3.35,1.5-3.35,3.35s1.5,3.35,3.35,3.35,3.35-1.5,3.35-3.35-1.5-3.35-3.35-3.35Zm18.73,11.42c-4.45,0-8.07-3.62-8.07-8.07s3.62-8.07,8.07-8.07,8.07,3.62,8.07,8.07-3.62,8.07-8.07,8.07Zm0-11.42c-1.85,0-3.35,1.5-3.35,3.35s1.5,3.35,3.35,3.35,3.35-1.5,3.35-3.35-1.5-3.35-3.35-3.35Zm-59.9-16.68h-10.23c-1.3,0-2.36-1.06-2.36-2.36v-4.8h-4.8c-1.3,0-2.36-1.06-2.36-2.36v-10.23c0-1.31,1.06-2.36,2.36-2.36h4.8v-4.8c0-1.31,1.06-2.36,2.36-2.36h10.23c1.3,0,2.36,1.06,2.36,2.36v4.8h4.8c1.3,0,2.36,1.06,2.36,2.36v10.23c0,1.31-1.06,2.36-2.36,2.36h-4.8v4.8c0,1.31-1.06,2.36-2.36,2.36Zm-7.86-4.72h5.5v-4.8c0-1.31,1.06-2.36,2.36-2.36h4.8v-5.5h-4.8c-1.3,0-2.36-1.06-2.36-2.36v-4.8h-5.5v4.8c0,1.31-1.06,2.36-2.36,2.36h-4.8v5.5h4.8c1.3,0,2.36,1.06,2.36,2.36v4.8Zm102.54,3.05h-10.23c-1.3,0-2.36-1.06-2.36-2.36v-4.8h-4.8c-1.3,0-2.36-1.06-2.36-2.36v-10.23c0-1.31,1.06-2.36,2.36-2.36h4.8v-4.8c0-1.31,1.06-2.36,2.36-2.36h10.23c1.3,0,2.36,1.06,2.36,2.36v4.8h4.8c1.3,0,2.36,1.06,2.36,2.36v10.23c0,1.31-1.06,2.36-2.36,2.36h-4.8v4.8c0,1.31-1.06,2.36-2.36,2.36Zm-7.86-4.72h5.5v-4.8c0-1.31,1.06-2.36,2.36-2.36h4.8v-5.5h-4.8c-1.3,0-2.36-1.06-2.36-2.36v-4.8h-5.5v4.8c0,1.31-1.06,2.36-2.36,2.36h-4.8v5.5h4.8c1.3,0,2.36,1.06,2.36,2.36v4.8Zm18.47,38.65h-13.44c-1.3,0-2.36-1.06-2.36-2.36v-13.43c0-1.31,1.06-2.36,2.36-2.36h13.44c1.3,0,2.36,1.06,2.36,2.36v13.43c0,1.31-1.06,2.36-2.36,2.36Zm-11.07-4.72h8.71v-8.71h-8.71v8.71Zm-103.12,4.72h-13.44c-1.3,0-2.36-1.06-2.36-2.36v-13.43c0-1.31,1.06-2.36,2.36-2.36h13.44c1.3,0,2.36,1.06,2.36,2.36v13.43c0,1.31-1.06,2.36-2.36,2.36Zm-11.07-4.72h8.71v-8.71h-8.71v8.71Zm62.58-56.12v-18.31c0-2.73,2.38-4.95,5.3-4.95h18.64c6.65,0,12.05-5.21,12.05-11.61s-5.41-11.61-12.05-11.61h-62.29c-1.3,0-2.36,1.06-2.36,2.36s1.06,2.36,2.36,2.36h62.29c4.04,0,7.33,3.09,7.33,6.89s-3.29,6.89-7.33,6.89h-18.64c-5.52,0-10.02,4.34-10.02,9.67v18.31c0,1.31,1.06,2.36,2.36,2.36s2.36-1.06,2.36-2.36Zm-90.28,148.49c1.29.74,2.3,1.76,3.05,3.08s1.12,2.81,1.12,4.48-.37,3.16-1.12,4.49-1.76,2.36-3.05,3.1c-1.29.74-2.72,1.1-4.31,1.1s-3.02-.37-4.31-1.1c-1.29-.74-2.3-1.77-3.05-3.1s-1.12-2.82-1.12-4.49.37-3.16,1.12-4.48,1.76-2.35,3.05-3.08c1.29-.74,2.72-1.1,4.31-1.1s3.02.37,4.31,1.1Zm-6.92,2.69c-.75.45-1.34,1.09-1.76,1.93s-.64,1.82-.64,2.94.21,2.1.64,2.94,1.01,1.48,1.76,1.93c.75.45,1.62.67,2.62.67s1.86-.22,2.62-.67c.75-.45,1.34-1.09,1.76-1.93.42-.84.64-1.82.64-2.94s-.21-2.1-.64-2.94c-.42-.84-1.01-1.48-1.76-1.93-.75-.45-1.62-.67-2.62-.67s-1.86.22-2.62.67Zm26.08-3.55l-5.74,11.02v5.93h-3.41v-5.93l-5.76-11.02h3.89l3.6,7.42,3.6-7.42h3.82Zm5.1,0v9.94c0,1.33.29,2.32.88,2.99s1.43,1,2.53,1,1.92-.33,2.51-1,.88-1.66.88-2.99v-9.94h3.36v9.94c0,1.57-.29,2.89-.88,3.97s-1.39,1.88-2.42,2.41c-1.03.53-2.21.79-3.52.79-2.03,0-3.66-.61-4.87-1.82-1.22-1.22-1.82-3-1.82-5.35v-9.94h3.36Zm27.8,16.94h-3.38l-7.58-11.52v11.52h-3.38v-16.94h3.38l7.58,11.62v-11.62h3.38v16.94Zm21.29-15.59c1.36,1.02,2.23,2.39,2.62,4.12h-3.55c-.34-.77-.87-1.38-1.6-1.84-.73-.46-1.59-.68-2.58-.68s-1.84.22-2.59.67c-.75.45-1.34,1.09-1.75,1.92-.42.83-.62,1.81-.62,2.93,0,1.78.48,3.16,1.43,4.15.95.99,2.25,1.49,3.9,1.49,1.22,0,2.26-.36,3.13-1.08.87-.72,1.44-1.72,1.69-3h-5.74v-2.42h8.57v3.26c-.24,1.12-.71,2.15-1.4,3.1-.7.94-1.61,1.7-2.74,2.27-1.13.57-2.42.85-3.88.85-1.66,0-3.13-.36-4.4-1.09-1.27-.73-2.26-1.74-2.95-3.05-.7-1.3-1.04-2.8-1.04-4.48s.35-3.17,1.04-4.48c.7-1.3,1.68-2.32,2.94-3.06,1.26-.74,2.73-1.1,4.39-1.1,2.06,0,3.78.51,5.14,1.52Zm9.03,1.33v4.39h6v2.59h-6v4.56h6.72v2.71h-10.1v-16.94h10.1v2.69h-6.72Zm12.91,11.66h5.69v2.59h-9.07v-16.94h3.38v14.35Zm11.01-14.35v16.94h-3.38v-16.94h3.38Zm-2.77-4.26c.3-.3.65-.44,1.07-.44s.8.15,1.09.44.44.66.44,1.09-.15.77-.44,1.07-.66.44-1.09.44-.77-.15-1.07-.44c-.3-.3-.44-.65-.44-1.07s.15-.8.44-1.09Zm16.92,18.96c-.43.73-1.07,1.31-1.92,1.75-.85.44-1.88.66-3.1.66s-2.27-.2-3.22-.61c-.94-.41-1.7-1-2.27-1.76-.57-.77-.89-1.66-.97-2.69h3.6c.08.69.36,1.26.83,1.72.47.46,1.1.68,1.88.68.7,0,1.24-.19,1.62-.56.38-.38.56-.86.56-1.45,0-.53-.15-.96-.46-1.31-.3-.34-.69-.62-1.15-.83-.46-.21-1.1-.45-1.92-.72-1.06-.35-1.92-.7-2.59-1.04-.67-.34-1.24-.84-1.72-1.5s-.71-1.51-.71-2.57c0-1.46.52-2.6,1.57-3.44s2.44-1.26,4.16-1.26,3.22.43,4.28,1.3c1.06.86,1.67,2.02,1.81,3.46h-3.65c-.1-.61-.35-1.11-.77-1.5-.42-.39-.98-.59-1.7-.59-.62,0-1.13.16-1.51.49-.38.33-.58.8-.58,1.43,0,.5.15.91.44,1.24.3.33.67.6,1.13.8s1.08.44,1.86.7c1.09.38,1.97.74,2.65,1.08s1.26.84,1.74,1.51c.48.67.72,1.55.72,2.64,0,.86-.22,1.66-.65,2.39Zm-2.03,4.07c.6.42.9,1.06.9,1.94s-.3,1.51-.91,1.93c-.61.42-1.36.64-2.26.64h-3.1v-1.82h2.74c.82,0,1.22-.29,1.22-.86,0-.24-.1-.43-.3-.58-.2-.14-.51-.22-.92-.22h-1.58v-3.02h2.04v1.42c.85-.03,1.57.16,2.17.58Zm16.62-18.77v2.69h-4.68v14.26h-3.38v-14.26h-4.66v-2.69h12.72Zm5.24,0v16.94h-3.38v-16.94h3.38Zm-2.77-4.26c.3-.3.65-.44,1.07-.44s.8.15,1.09.44.44.66.44,1.09-.15.77-.44,1.07-.66.44-1.09.44-.77-.15-1.07-.44c-.3-.3-.44-.65-.44-1.07s.15-.8.44-1.09Zm15.01,21.2l-3.96-6.6h-1.49v6.6h-3.38v-16.94h6.46c1.97,0,3.47.48,4.5,1.44s1.55,2.22,1.55,3.79c0,1.28-.36,2.35-1.07,3.22s-1.74,1.44-3.08,1.73l4.22,6.77h-3.74Zm-5.45-8.93h2.78c1.94,0,2.9-.86,2.9-2.57,0-.82-.24-1.45-.71-1.91-.47-.46-1.2-.68-2.2-.68h-2.78v5.16Zm29.94-7.82v16.75h-3.36v-11.69l-4.3,11.69h-2.93l-4.3-11.64v11.64h-3.38v-16.75h4.1l5.09,12.6,4.99-12.6h4.08Zm6.8,2.5v4.39h6v2.59h-6v4.56h6.72v2.71h-10.1v-16.94h10.1v2.69h-6.72Z"/></svg>