<?xml version="1.0" encoding="UTF-8"?><svg id="uuid-57c524da-da79-455a-9fa8-7718ddf344bf" xmlns="http://www.w3.org/2000/svg" viewBox="0 0 400 400"><defs><style>.uuid-624e4da4-f087-458f-9609-44239762644f{fill:#1e0f41;}.uuid-6a8c4888-98ed-49b3-87be-8cbfd839c1b1{fill:#87ff87;}.uuid-ee53c050-17cc-4913-b959-4fd9b94286f3{fill:none;}.uuid-60094bac-0dd3-47da-82ec-13e021d63a84{fill:#00d29b;}</style></defs><rect class="uuid-ee53c050-17cc-4913-b959-4fd9b94286f3" width="400" height="400"/><circle class="uuid-6a8c4888-98ed-49b3-87be-8cbfd839c1b1" cx="251.03" cy="208.68" r="48.17"/><path class="uuid-60094bac-0dd3-47da-82ec-13e021d63a84" d="m198.57,86.35c9,0,16.3,7.3,16.3,16.3s-7.3,16.3-16.3,16.3-16.3-7.3-16.3-16.3,7.3-16.3,16.3-16.3Zm21.74,16.3c0-12-9.73-21.72-21.72-21.72h-76.11c-11.98.03-21.67,9.75-21.67,21.72h0c0,12.01,9.73,21.74,21.72,21.74h76.05c11.98-.03,21.67-9.76,21.67-21.74h.06Z"/><path class="uuid-624e4da4-f087-458f-9609-44239762644f" d="m213.01,199.13c-.59,0-1.18-.22-1.64-.68l-20.83-20.74c-1.49-1.49-2.31-3.47-2.31-5.57s.82-4.08,2.31-5.57c3.07-3.07,8.07-3.07,11.14,0l20.83,20.74c.91.9.91,2.37,0,3.28-.9.91-2.37.91-3.28,0l-20.83-20.74c-1.27-1.26-3.32-1.27-4.59,0-1.26,1.26-1.26,3.32,0,4.58l20.83,20.74c.91.9.91,2.37,0,3.28-.45.45-1.05.68-1.64.68Zm9.16-8.9c.9-.91.9-2.38,0-3.28l-15.92-15.83c-1.26-1.26-1.26-3.32,0-4.58s3.32-1.26,4.58,0l16.18,16.27c.9.91,2.37.91,3.28,0s.91-2.37,0-3.28l-16.19-16.28c-3.07-3.07-8.07-3.07-11.14,0-3.07,3.07-3.07,8.07,0,11.15l15.92,15.83c.45.45,1.04.67,1.63.67s1.19-.23,1.64-.68Zm11.39,47.98l28.67-28.67c.43-.43.68-1.03.68-1.64s-.24-1.2-.68-1.64l-4.28-4.28c-1.41-1.41-2.35-3.18-2.71-5.13-.85-4.5-2.54-10.54-5.71-13.71l-23.62-23.62c-2.38-2.38-6.02-2.99-9.05-1.5-.78.38-1.48.89-2.09,1.5-3.07,3.07-3.07,8.07,0,11.15l12.25,12.16c.91.9,2.38.9,3.28-.01.9-.91.9-2.38-.01-3.28l-12.25-12.16c-1.26-1.26-1.26-3.32,0-4.58.25-.25.54-.46.86-.62,1.25-.61,2.74-.36,3.72.62l23.62,23.62c1.8,1.8,3.41,5.91,4.43,11.29.54,2.87,1.92,5.48,3.99,7.54l2.64,2.64-25.49,25.49c-2.52-1.95-5.57-3.2-8.8-3.58-6.43-.75-18.13-3.29-24.31-11.98-2.55-3.58-15.37-10.01-18.49-11.53-.72-.63-.85-1.72-.28-2.51,1.08-1.47,3.1-1.88,9.62.97.25.09,6.1,2.3,10.75,3.07,1.54.25,3.07-.5,3.8-1.88.73-1.38.5-3.07-.57-4.21l-34.11-35.99c-.61-.61-.95-1.43-.95-2.29s.34-1.68.95-2.29c1.22-1.22,3.36-1.22,4.58,0l37.37,37.28c.91.91,2.37.9,3.28,0,.9-.91.9-2.37,0-3.28l-37.37-37.28c-3.07-3.07-8.07-3.07-11.14,0-3.07,3.07-3.07,8.07-.04,11.1l31.83,33.59c-3.38-.88-6.61-2.1-6.62-2.1h0c-3.89-1.71-11.13-4.89-15.12.59-2.11,2.9-1.47,6.97,1.42,9.09.11.08.23.15.35.21,7.33,3.57,15.67,8.35,16.96,10.16,7.22,10.14,20.36,13.06,27.56,13.9,2.92.34,5.64,1.64,7.67,3.67l.13.13c.45.45,1.04.67,1.63.67s1.19-.23,1.64-.68Zm7.2,14.91l36.38-36.38c.43-.43.68-1.03.68-1.64s-.24-1.2-.68-1.64l-11.05-11.05c-.87-.87-2.41-.87-3.28,0l-36.38,36.38c-.43.43-.68,1.03-.68,1.64s.24,1.2.68,1.64l11.05,11.05c.45.45,1.05.68,1.64.68s1.19-.23,1.64-.68Zm23.69-45.8l7.78,7.78-33.1,33.1-7.78-7.77,33.1-33.1Zm-62.32,23.12v-7.9c0-1.28-1.04-2.32-2.32-2.32s-2.32,1.04-2.32,2.32v5.58h-70.65v-109.58h70.65v49.08c0,1.28,1.04,2.32,2.32,2.32s2.32-1.04,2.32-2.32v-51.39c0-1.28-1.04-2.32-2.32-2.32h-75.29c-1.28,0-2.32,1.04-2.32,2.32v114.22c0,1.28,1.04,2.32,2.32,2.32h75.29c1.28,0,2.32-1.04,2.32-2.32Zm0-114.22v-10.62c0-6.51-5.3-11.81-11.81-11.81h-56.32c-6.51,0-11.81,5.3-11.81,11.81v10.62c0,1.28,1.04,2.32,2.32,2.32h75.29c1.28,0,2.32-1.04,2.32-2.32Zm-75.29-10.62c0-3.95,3.22-7.17,7.17-7.17h56.32c3.95,0,7.17,3.22,7.17,7.17v8.31h-70.65v-8.31Zm75.29,134.99v-10.14c0-1.28-1.04-2.32-2.32-2.32h-75.29c-1.28,0-2.32,1.04-2.32,2.32v10.14c0,6.51,5.3,11.81,11.81,11.81h56.32c6.51,0,11.81-5.3,11.81-11.81Zm-4.64-7.83v7.83c0,3.95-3.22,7.17-7.17,7.17h-56.32c-3.95,0-7.17-3.22-7.17-7.17v-7.83h70.65Zm-27.01-126.59c0-1.28-1.04-2.32-2.32-2.32h-11.99c-1.28,0-2.32,1.04-2.32,2.32s1.04,2.32,2.32,2.32h11.99c1.28,0,2.32-1.04,2.32-2.32Zm-9.1,45.92v-23.23c0-1.28-1.04-2.32-2.32-2.32h-23.23c-1.28,0-2.32,1.04-2.32,2.32v23.23c0,1.28,1.04,2.32,2.32,2.32h23.23c1.28,0,2.32-1.04,2.32-2.32Zm-23.23-20.92h18.6v18.6h-18.6v-18.6Zm23.23,53.6v-23.23c0-1.28-1.04-2.32-2.32-2.32h-23.23c-1.28,0-2.32,1.04-2.32,2.32v23.23c0,1.28,1.04,2.32,2.32,2.32h23.23c1.28,0,2.32-1.04,2.32-2.32Zm-23.23-20.92h18.6v18.6h-18.6v-18.6Zm23.23,53.6v-23.23c0-1.28-1.04-2.32-2.32-2.32h-23.23c-1.28,0-2.32,1.04-2.32,2.32v23.23c0,1.28,1.04,2.32,2.32,2.32h23.23c1.28,0,2.32-1.04,2.32-2.32Zm-23.23-20.91h18.6v18.6h-18.6v-18.6Zm-97.38,91.55l-4.99,12.6-5.09-12.6h-4.1v16.75h3.38v-11.64l4.3,11.64h2.93l4.3-11.69v11.69h3.36v-16.75h-4.08Zm15.22-.43c-1.58,0-3.02.37-4.31,1.1-1.29.74-2.3,1.76-3.05,3.08s-1.12,2.81-1.12,4.48.37,3.16,1.12,4.49,1.76,2.36,3.05,3.1c1.29.74,2.72,1.1,4.31,1.1s3.02-.37,4.31-1.1c1.29-.74,2.3-1.77,3.05-3.1s1.12-2.82,1.12-4.49-.37-3.16-1.12-4.48-1.76-2.35-3.05-3.08c-1.29-.74-2.72-1.1-4.31-1.1Zm0,3.12c.99,0,1.86.22,2.62.67.75.45,1.34,1.09,1.76,1.93.42.84.64,1.82.64,2.94s-.21,2.1-.64,2.94c-.42.84-1.01,1.48-1.76,1.93-.75.45-1.62.67-2.62.67s-1.86-.22-2.62-.67c-.75-.45-1.34-1.09-1.76-1.93s-.64-1.82-.64-2.94.21-2.1.64-2.94,1.01-1.48,1.76-1.93c.75-.45,1.62-.67,2.62-.67Zm20.58,5.33c.9-.21,1.62-.65,2.17-1.32s.83-1.54.83-2.59c0-1.36-.46-2.42-1.38-3.17-.92-.75-2.24-1.13-3.95-1.13h-7.13v16.94h7.27c1.81,0,3.19-.41,4.14-1.24.95-.82,1.43-1.95,1.43-3.37,0-1.02-.31-1.92-.92-2.68-.62-.76-1.44-1.24-2.46-1.45Zm-6.07-5.5h3c.9,0,1.56.19,1.99.58s.65.93.65,1.63-.22,1.25-.66,1.62c-.44.38-1.08.56-1.93.56h-3.05v-4.39Zm3.22,11.47h-3.22v-4.66h3.19c.9,0,1.59.2,2.08.61.49.41.73.99.73,1.74s-.24,1.32-.72,1.72c-.48.39-1.17.59-2.06.59Zm8.99-14.18v16.94h3.38v-16.94h-3.38Zm.17-3.17c0,.42.15.77.44,1.07.3.3.65.44,1.07.44s.8-.15,1.09-.44.44-.65.44-1.07-.15-.8-.44-1.09-.66-.44-1.09-.44-.77.15-1.07.44c-.3.3-.44.66-.44,1.09Zm10.01,3.17h-3.38v16.94h9.07v-2.59h-5.69v-14.35Zm12.84,0v9.94c0,2.35.61,4.14,1.82,5.35,1.22,1.22,2.84,1.82,4.87,1.82,1.31,0,2.48-.26,3.52-.79,1.03-.53,1.84-1.33,2.42-2.41s.88-2.4.88-3.97v-9.94h-3.36v9.94c0,1.33-.29,2.32-.88,2.99s-1.42,1-2.51,1-1.95-.33-2.53-1-.88-1.66-.88-2.99v-9.94h-3.36Zm26.34,0l-3.6,7.42-3.6-7.42h-3.89l5.76,11.02v5.93h3.41v-5.93l5.74-11.02h-3.82Zm12.3-.17c-1.66,0-3.13.37-4.39,1.1-1.26.74-2.24,1.76-2.94,3.06-.7,1.3-1.04,2.8-1.04,4.48s.35,3.17,1.04,4.48c.7,1.3,1.68,2.32,2.95,3.05,1.27.73,2.74,1.09,4.4,1.09,1.46,0,2.75-.28,3.88-.85,1.13-.57,2.04-1.32,2.74-2.27.7-.94,1.16-1.98,1.4-3.1v-3.26h-8.57v2.42h5.74c-.26,1.28-.82,2.28-1.69,3-.87.72-1.92,1.08-3.13,1.08-1.65,0-2.95-.5-3.9-1.49-.95-.99-1.43-2.38-1.43-4.15,0-1.12.21-2.1.62-2.93.42-.83,1-1.47,1.75-1.92.75-.45,1.62-.67,2.59-.67s1.85.23,2.58.68c.73.46,1.26,1.07,1.6,1.84h3.55c-.38-1.73-1.26-3.1-2.62-4.12-1.36-1.02-3.07-1.52-5.14-1.52Zm10.64.17v9.94c0,2.35.61,4.14,1.82,5.35,1.22,1.22,2.84,1.82,4.87,1.82,1.31,0,2.48-.26,3.52-.79,1.03-.53,1.84-1.33,2.42-2.41s.88-2.4.88-3.97v-9.94h-3.36v9.94c0,1.33-.29,2.32-.88,2.99s-1.42,1-2.51,1-1.95-.33-2.53-1-.88-1.66-.88-2.99v-9.94h-3.36Zm20.19,0h-3.38v16.94h9.07v-2.59h-5.69v-14.35Zm19.76,16.94h3.58l-6.22-16.75h-3.86l-6.24,16.75h3.58l1.2-3.41h6.79l1.18,3.41Zm-7.08-5.98l2.5-7.15,2.5,7.15h-4.99Zm26.68-10.78l-4.99,12.6-5.09-12.6h-4.1v16.75h3.38v-11.64l4.3,11.64h2.93l4.3-11.69v11.69h3.36v-16.75h-4.08Zm18.67,16.75h3.58l-6.22-16.75h-3.86l-6.24,16.75h3.58l1.2-3.41h6.79l1.18,3.41Zm-7.08-5.98l2.5-7.15,2.5,7.15h-4.99Zm25.56-11.14c-1.66,0-3.13.37-4.39,1.1-1.26.74-2.24,1.76-2.94,3.06-.7,1.3-1.04,2.8-1.04,4.48s.35,3.17,1.04,4.48c.7,1.3,1.68,2.32,2.95,3.05,1.27.73,2.74,1.09,4.4,1.09,1.46,0,2.75-.28,3.88-.85,1.13-.57,2.04-1.32,2.74-2.27.7-.94,1.16-1.98,1.4-3.1v-3.26h-8.57v2.42h5.74c-.26,1.28-.82,2.28-1.69,3-.87.72-1.92,1.08-3.13,1.08-1.65,0-2.95-.5-3.9-1.49-.95-.99-1.43-2.38-1.43-4.15,0-1.12.21-2.1.62-2.93.42-.83,1-1.47,1.75-1.92.75-.45,1.62-.67,2.59-.67s1.85.23,2.58.68c.73.46,1.26,1.07,1.6,1.84h3.55c-.38-1.73-1.26-3.1-2.62-4.12-1.36-1.02-3.07-1.52-5.14-1.52Zm20.89,2.86v-2.69h-10.1v16.94h10.1v-2.71h-6.72v-4.56h6v-2.59h-6v-4.39h6.72Zm6.19-2.69h-3.38v16.94h9.07v-2.59h-5.69v-14.35Zm7.62,0v16.94h3.38v-16.94h-3.38Zm.17-3.17c0,.42.15.77.44,1.07.3.3.65.44,1.07.44s.8-.15,1.09-.44.44-.65.44-1.07-.15-.8-.44-1.09-.66-.44-1.09-.44-.77.15-1.07.44c-.3.3-.44.66-.44,1.09Zm18.02,15.48c0-1.09-.24-1.97-.72-2.64-.48-.67-1.06-1.18-1.74-1.51s-1.56-.7-2.65-1.08c-.78-.26-1.4-.49-1.86-.7s-.83-.48-1.13-.8c-.3-.33-.44-.74-.44-1.24,0-.62.19-1.1.58-1.43.38-.33.89-.49,1.51-.49.72,0,1.29.2,1.7.59.42.39.67.89.77,1.5h3.65c-.14-1.44-.75-2.59-1.81-3.46-1.06-.86-2.49-1.3-4.28-1.3s-3.12.42-4.16,1.26-1.57,1.99-1.57,3.44c0,1.06.24,1.91.71,2.57s1.04,1.16,1.72,1.5c.67.34,1.54.69,2.59,1.04.82.27,1.46.51,1.92.72.46.21.85.48,1.15.83.3.34.46.78.46,1.31,0,.59-.19,1.08-.56,1.45-.38.38-.92.56-1.62.56-.78,0-1.41-.23-1.88-.68-.47-.46-.75-1.03-.83-1.72h-3.6c.08,1.02.4,1.92.97,2.69.57.77,1.32,1.36,2.27,1.76.94.41,2.02.61,3.22.61s2.25-.22,3.1-.66c.85-.44,1.49-1.02,1.92-1.75.43-.73.65-1.52.65-2.39Zm-4.85,5.88v-1.42h-2.04v3.02h1.58c.42,0,.72.07.92.22.2.14.3.34.3.58,0,.58-.41.86-1.22.86h-2.74v1.82h3.1c.9,0,1.65-.21,2.26-.64.61-.42.91-1.07.91-1.93s-.3-1.53-.9-1.94-1.32-.61-2.17-.58Zm6.07-18.19v2.69h4.66v14.26h3.38v-14.26h4.68v-2.69h-12.72Zm14.57,0v16.94h3.38v-16.94h-3.38Zm.17-3.17c0,.42.15.77.44,1.07.3.3.65.44,1.07.44s.8-.15,1.09-.44.44-.65.44-1.07-.15-.8-.44-1.09-.66-.44-1.09-.44-.77.15-1.07.44c-.3.3-.44.66-.44,1.09Zm19.2,20.11l-4.22-6.77c1.34-.29,2.37-.86,3.08-1.73s1.07-1.94,1.07-3.22c0-1.57-.52-2.83-1.55-3.79s-2.53-1.44-4.5-1.44h-6.46v16.94h3.38v-6.6h1.49l3.96,6.6h3.74Zm-9.19-14.09h2.78c.99,0,1.72.23,2.2.68.47.46.71,1.09.71,1.91,0,1.71-.97,2.57-2.9,2.57h-2.78v-5.16Zm25.86-2.66l-4.99,12.6-5.09-12.6h-4.1v16.75h3.38v-11.64l4.3,11.64h2.93l4.3-11.69v11.69h3.36v-16.75h-4.08Zm17.6,2.5v-2.69h-10.1v16.94h10.1v-2.71h-6.72v-4.56h6v-2.59h-6v-4.39h6.72Z"/></svg>