<?xml version="1.0" encoding="UTF-8"?><svg id="uuid-2a209e61-35a6-4d5e-9cbd-49eb95f928a2" xmlns="http://www.w3.org/2000/svg" viewBox="0 0 400 400"><defs><style>.uuid-d12771b4-04e4-47f3-84d0-178fbe143b3c{fill:#1e0f41;}.uuid-36258216-fb07-47a6-a7c6-2dd441362575{fill:#87ff87;}.uuid-ec1dbb91-c691-462c-9267-ce596bbe55d4{fill:none;}.uuid-530ae822-9923-4ac9-9fea-aebdd1b61ab0{fill:#00d29b;}</style></defs><rect class="uuid-ec1dbb91-c691-462c-9267-ce596bbe55d4" width="400" height="400"/><circle class="uuid-36258216-fb07-47a6-a7c6-2dd441362575" cx="251.03" cy="208.68" r="48.17"/><path class="uuid-530ae822-9923-4ac9-9fea-aebdd1b61ab0" d="m198.57,86.35c9,0,16.3,7.3,16.3,16.3s-7.3,16.3-16.3,16.3-16.3-7.3-16.3-16.3,7.3-16.3,16.3-16.3Zm21.74,16.3c0-12-9.73-21.72-21.72-21.72h-76.11c-11.98.03-21.67,9.75-21.67,21.72h0c0,12.01,9.73,21.74,21.72,21.74h76.05c11.98-.03,21.67-9.76,21.67-21.74h.06Z"/><path class="uuid-d12771b4-04e4-47f3-84d0-178fbe143b3c" d="m141.46,287.9l4.54,13.42,4.56-13.42h3.62l-6,16.94h-4.34l-6-16.94h3.62Zm17.91,2.69v4.39h6v2.59h-6v4.56h6.72v2.71h-10.1v-16.94h10.1v2.69h-6.72Zm18.36,14.26l-3.96-6.6h-1.49v6.6h-3.38v-16.94h6.46c1.97,0,3.47.48,4.5,1.44s1.55,2.22,1.55,3.79c0,1.28-.36,2.35-1.07,3.22-.71.86-1.74,1.44-3.08,1.73l4.22,6.77h-3.74Zm-5.45-8.93h2.78c1.94,0,2.9-.86,2.9-2.57,0-.82-.24-1.45-.71-1.91-.47-.46-1.2-.68-2.2-.68h-2.78v5.16Zm15.1-8.02v16.94h-3.38v-16.94h3.38Zm-2.77-4.26c.3-.3.65-.44,1.07-.44s.8.15,1.09.44c.3.3.44.66.44,1.09s-.15.77-.44,1.07c-.3.3-.66.44-1.09.44s-.77-.15-1.07-.44c-.3-.3-.44-.65-.44-1.07s.15-.8.44-1.09Zm22.99,13.92c.62.76.92,1.65.92,2.68,0,1.42-.48,2.55-1.43,3.37-.95.82-2.33,1.24-4.14,1.24h-7.27v-16.94h7.13c1.71,0,3.03.38,3.95,1.13.92.75,1.38,1.81,1.38,3.17,0,1.06-.28,1.92-.83,2.59s-1.28,1.11-2.17,1.32c1.02.21,1.84.69,2.46,1.45Zm-8.53-2.56h3.05c.85,0,1.49-.19,1.93-.56.44-.38.66-.92.66-1.62s-.22-1.25-.65-1.63c-.43-.38-1.1-.58-1.99-.58h-3v4.39Zm5.28,6.49c.48-.39.72-.96.72-1.72s-.24-1.33-.73-1.74c-.49-.41-1.18-.61-2.08-.61h-3.19v4.66h3.22c.9,0,1.58-.2,2.06-.59Zm10.3-13.6v16.94h-3.38v-16.94h3.38Zm-2.77-4.26c.3-.3.65-.44,1.07-.44s.8.15,1.09.44c.3.3.44.66.44,1.09s-.15.77-.44,1.07c-.3.3-.66.44-1.09.44s-.77-.15-1.07-.44c-.3-.3-.44-.65-.44-1.07s.15-.8.44-1.09Zm9.57,18.61h5.69v2.59h-9.07v-16.94h3.38v14.35Zm11.01-14.35v16.94h-3.38v-16.94h3.38Zm-2.77-4.26c.3-.3.65-.44,1.07-.44s.8.15,1.09.44c.3.3.44.66.44,1.09s-.15.77-.44,1.07c-.3.3-.66.44-1.09.44s-.77-.15-1.07-.44c-.3-.3-.44-.65-.44-1.07s.15-.8.44-1.09Zm24.45,4.45v16.75h-3.36v-11.69l-4.3,11.69h-2.93l-4.3-11.64v11.64h-3.38v-16.75h4.1l5.09,12.6,4.99-12.6h4.08Zm6.79-.19v16.94h-3.38v-16.94h3.38Zm-2.77-4.26c.3-.3.65-.44,1.07-.44s.8.15,1.09.44c.3.3.44.66.44,1.09s-.15.77-.44,1.07c-.3.3-.66.44-1.09.44s-.77-.15-1.07-.44c-.3-.3-.44-.65-.44-1.07s.15-.8.44-1.09Zm-127.84-173.97c-.61,0-1.19-.24-1.62-.67-.43-.43-.67-1.01-.67-1.62s.24-1.19.67-1.62c.84-.86,2.39-.86,3.24,0,.43.43.67,1.02.67,1.62s-.24,1.19-.67,1.62c-.43.43-1.02.67-1.62.67Zm13.78,0h0c1.27,0,2.29-1.02,2.29-2.29h0c0-1.27-1.02-2.29-2.29-2.29h0c-1.25,0-2.29,1.03-2.29,2.29s1.04,2.29,2.29,2.29Zm15.42-.67c.43-.43.67-1.01.67-1.62s-.24-1.19-.67-1.62c-.86-.86-2.39-.86-3.24,0-.43.43-.67,1.02-.67,1.62s.25,1.19.67,1.62c.43.43,1.02.67,1.62.67s1.19-.24,1.62-.67Zm77.26,142.51v-16.13c0-1.27-1.03-2.29-2.29-2.29s-2.29,1.03-2.29,2.29v13.83h-110.07V98.38h110.07v51.94c0,1.27,1.03,2.29,2.29,2.29s2.29-1.03,2.29-2.29v-54.23c0-1.27-1.03-2.29-2.29-2.29h-114.66c-1.27,0-2.29,1.03-2.29,2.29v155.41c0,1.27,1.03,2.29,2.29,2.29h114.66c1.27,0,2.29-1.03,2.29-2.29Zm0-132.91v-22.43c0-1.27-1.03-2.29-2.29-2.29h-114.72c-1.27,0-2.29,1.03-2.29,2.29v22.43c0,1.27,1.03,2.29,2.29,2.29h114.72c1.27,0,2.29-1.03,2.29-2.29Zm-114.72-20.13h110.14v17.84h-110.14v-17.84Zm154.32,136.92v-82.73c0-1.27-1.03-2.29-2.29-2.29s-2.29,1.03-2.29,2.29v80.43h-127.77v-52.78c0-1.27-1.03-2.29-2.29-2.29s-2.29,1.03-2.29,2.29v55.07c0,1.27,1.03,2.29,2.29,2.29h132.36c1.27,0,2.29-1.03,2.29-2.29Zm-112.55-29.58c.87-.31,1.47-1.1,1.53-2.02l1.94-31.36,17.31,22.48c.57.74,1.52,1.06,2.42.82.9-.24,1.56-1,1.68-1.92l3.82-29.38,15.67,15.06c.59.56,1.43.77,2.21.55.78-.22,1.39-.84,1.6-1.63l5.51-20.99,11.84,11.36c.59.56,1.43.77,2.22.55.78-.22,1.39-.85,1.59-1.63l8.7-33.75,14.23,25.54c.5.9,1.53,1.35,2.53,1.12,1-.23,1.72-1.1,1.77-2.12l2.71-56.69c.06-1.27-.92-2.34-2.18-2.4-1.29-.05-2.34.92-2.4,2.18l-2.32,48.66-13.11-23.53c-.46-.82-1.37-1.28-2.3-1.16-.93.12-1.69.79-1.93,1.7l-9.15,35.51-11.83-11.34c-.59-.56-1.43-.77-2.21-.55-.78.22-1.39.84-1.6,1.63l-5.51,20.99-16.13-15.5c-.63-.6-1.53-.8-2.35-.51-.82.29-1.4,1.01-1.51,1.87l-3.69,28.4-17.66-22.94c-.58-.76-1.58-1.07-2.49-.79-.91.28-1.56,1.1-1.62,2.05l-1.98,32.07-17.68-19.34c-.86-.93-2.31-1-3.24-.14-.94.86-1,2.31-.14,3.24l21.33,23.33c.44.48,1.06.75,1.69.75.26,0,.51-.04.76-.13Zm1.52,9.71v-11.63c0-1.27-1.03-2.29-2.29-2.29s-2.29,1.03-2.29,2.29v11.63c0,1.27,1.03,2.29,2.29,2.29s2.29-1.03,2.29-2.29Zm23.14-5.81v-16.19c0-1.27-1.03-2.29-2.29-2.29s-2.29,1.03-2.29,2.29v16.19c0,1.27,1.03,2.29,2.29,2.29s2.29-1.03,2.29-2.29Zm23.36-9.51v-22.82c0-1.27-1.03-2.29-2.29-2.29s-2.29,1.03-2.29,2.29v22.82c0,1.27,1.03,2.29,2.29,2.29s2.29-1.03,2.29-2.29Zm48.4-22.74v-20.51c0-1.27-1.03-2.29-2.29-2.29s-2.29,1.03-2.29,2.29v20.51c0,1.27,1.03,2.29,2.29,2.29s2.29-1.03,2.29-2.29Zm5.53,6.33c0-4.67-3.8-8.46-8.46-8.46s-8.46,3.8-8.46,8.46,3.8,8.46,8.46,8.46,8.46-3.8,8.46-8.46Zm-4.59,0c0,2.13-1.74,3.87-3.87,3.87s-3.87-1.74-3.87-3.87,1.74-3.87,3.87-3.87,3.87,1.74,3.87,3.87Zm21.36-37.56c0-4.67-3.8-8.46-8.46-8.46s-8.46,3.8-8.46,8.46,3.8,8.46,8.46,8.46,8.46-3.8,8.46-8.46Zm-4.59,0c0,2.14-1.74,3.87-3.87,3.87s-3.87-1.74-3.87-3.87,1.74-3.87,3.87-3.87,3.87,1.74,3.87,3.87Zm-38.32,48.72c0-4.67-3.8-8.46-8.46-8.46s-8.46,3.8-8.46,8.46,3.8,8.46,8.46,8.46,8.46-3.8,8.46-8.46Zm-4.59,0c0,2.13-1.74,3.87-3.87,3.87s-3.87-1.74-3.87-3.87,1.74-3.87,3.87-3.87,3.87,1.74,3.87,3.87Zm-17.03,11.87c0-4.67-3.8-8.46-8.46-8.46s-8.46,3.8-8.46,8.46,3.8,8.46,8.46,8.46,8.46-3.8,8.46-8.46Zm-4.59,0c0,2.13-1.74,3.87-3.87,3.87s-3.87-1.74-3.87-3.87,1.74-3.87,3.87-3.87,3.87,1.74,3.87,3.87Zm-18.15,9.45c0-4.67-3.8-8.46-8.46-8.46s-8.46,3.8-8.46,8.46,3.8,8.46,8.46,8.46,8.46-3.8,8.46-8.46Zm-4.59,0c0,2.13-1.74,3.87-3.87,3.87s-3.87-1.74-3.87-3.87,1.74-3.87,3.87-3.87,3.87,1.74,3.87,3.87Zm-19.17,5.41c0-4.67-3.8-8.46-8.46-8.46s-8.46,3.8-8.46,8.46,3.8,8.46,8.46,8.46,8.46-3.8,8.46-8.46Zm-4.59,0c0,2.13-1.74,3.87-3.87,3.87s-3.87-1.74-3.87-3.87,1.74-3.87,3.87-3.87,3.87,1.74,3.87,3.87Zm66.55-32.9v-21.66c0-1.27-1.03-2.29-2.29-2.29s-2.29,1.03-2.29,2.29v21.66c0,1.27,1.03,2.29,2.29,2.29s2.29-1.03,2.29-2.29Zm-89.45-8.46v-31.52c0-1.27-1.03-2.29-2.29-2.29s-2.29,1.03-2.29,2.29v31.52c0,1.27,1.03,2.29,2.29,2.29s2.29-1.03,2.29-2.29Zm7.55-24.25c.9-.9.9-2.35,0-3.24l-8.22-8.22c-.9-.9-2.35-.9-3.24,0l-8.22,8.22c-.9.9-.9,2.35,0,3.24.9.9,2.35.9,3.24,0l6.6-6.6,6.6,6.6c.45.45,1.04.67,1.62.67s1.17-.22,1.62-.67Zm119.07-46.33c.9-.9.9-2.35,0-3.24l-8.22-8.22c-.43-.43-1.01-.67-1.62-.67h0c-.61,0-1.19.24-1.62.67l-8.22,8.22c-.9.9-.9,2.35,0,3.24.9.9,2.35.9,3.24,0l6.6-6.6,6.6,6.6c.45.45,1.04.67,1.62.67s1.17-.22,1.62-.67Z"/></svg>