<?xml version="1.0" encoding="UTF-8"?><svg id="uuid-caa57ee6-1a3f-4f67-ad74-cce830bf0c9e" xmlns="http://www.w3.org/2000/svg" viewBox="0 0 400 400"><defs><style>.uuid-8afd4c20-b6ac-4ff7-bbcb-f56be9e6afeb{fill:#1e0f41;}.uuid-05a7648f-51c3-4012-a87d-ec59b30665b6{fill:#87ff87;}.uuid-dc4f3efb-9b6b-42ec-9aef-1d442fa08dfe{fill:none;}.uuid-ab050d8d-3f40-42ff-8189-ce77791d52e5{fill:#00d29b;}</style></defs><rect class="uuid-dc4f3efb-9b6b-42ec-9aef-1d442fa08dfe" width="400" height="400"/><circle class="uuid-05a7648f-51c3-4012-a87d-ec59b30665b6" cx="251.03" cy="208.68" r="48.17"/><path class="uuid-ab050d8d-3f40-42ff-8189-ce77791d52e5" d="m198.57,86.35c9,0,16.3,7.3,16.3,16.3s-7.3,16.3-16.3,16.3-16.3-7.3-16.3-16.3,7.3-16.3,16.3-16.3Zm21.74,16.3c0-12-9.73-21.72-21.72-21.72h-76.11c-11.98.03-21.67,9.75-21.67,21.72h0c0,12.01,9.73,21.74,21.72,21.74h76.05c11.98-.03,21.67-9.76,21.67-21.74h.06Z"/><path class="uuid-8afd4c20-b6ac-4ff7-bbcb-f56be9e6afeb" d="m278.4,253.79H121.6c-1.28,0-2.32-1.04-2.32-2.32V119.04c0-1.28,1.04-2.32,2.32-2.32h156.81c1.28,0,2.32,1.04,2.32,2.32v132.43c0,1.28-1.04,2.32-2.32,2.32Zm-154.49-4.64h152.17v-127.79H123.92v127.79Zm154.49-127.79H121.6c-1.28,0-2.32-1.04-2.32-2.32v-22.93c0-1.28,1.04-2.32,2.32-2.32h156.81c1.28,0,2.32,1.04,2.32,2.32v22.93c0,1.28-1.04,2.32-2.32,2.32Zm-154.49-4.64h152.17v-18.28H123.92v18.28Zm11.39-7.5c.43-.43.68-1.04.68-1.64,0-.15-.02-.31-.05-.45-.03-.15-.08-.29-.12-.43-.06-.14-.14-.28-.22-.4-.09-.12-.19-.25-.29-.36-.87-.87-2.42-.87-3.28,0-.11.11-.2.23-.29.36-.08.12-.15.26-.2.4-.06.14-.11.28-.14.43-.03.14-.05.29-.05.45,0,.6.25,1.21.68,1.64.43.43,1.04.68,1.64.68s1.21-.25,1.64-.68Zm17.32.68h0c1.28,0,2.32-1.04,2.32-2.32h0c0-1.28-1.04-2.32-2.32-2.32h0c-1.27,0-2.32,1.04-2.32,2.32s1.05,2.32,2.32,2.32Zm20.61-.68c.43-.43.68-1.02.68-1.64s-.25-1.21-.68-1.64c-.54-.54-1.35-.79-2.11-.63-.14.03-.29.08-.43.14-.14.05-.28.12-.4.2-.12.09-.25.19-.34.29-.43.43-.68,1.04-.68,1.64s.25,1.21.68,1.64c.09.11.22.2.34.29.12.08.26.15.4.22.14.05.29.09.43.12.16.03.31.05.46.05.6,0,1.21-.25,1.64-.68Zm2.18,49.07h-22.44c-1.28,0-2.32-1.04-2.32-2.32v-22.44c0-1.28,1.04-2.32,2.32-2.32h22.44c1.28,0,2.32,1.04,2.32,2.32v22.44c0,1.28-1.04,2.32-2.32,2.32Zm-20.11-4.64h17.79v-17.79h-17.79v17.79Zm57.55,3.96c.43-.43.68-1.04.68-1.64,0-.15-.02-.31-.03-.45-.03-.15-.08-.29-.14-.45-.06-.14-.12-.26-.22-.39-.08-.14-.19-.25-.29-.36-.53-.54-1.35-.79-2.09-.63-.14.03-.29.08-.43.12-.14.06-.28.14-.4.22-.12.08-.25.19-.36.29-.09.11-.2.22-.28.36-.09.12-.15.25-.22.39-.06.15-.11.29-.14.45-.02.14-.05.29-.05.45,0,.6.26,1.21.68,1.64.11.11.23.2.36.28.12.09.26.17.4.22.14.06.29.11.43.14.15.03.31.05.46.05.6,0,1.21-.25,1.62-.68Zm-12.84.68h0c1.27,0,2.32-1.04,2.32-2.32h0c0-1.28-1.05-2.32-2.32-2.32h0c-1.28,0-2.32,1.04-2.32,2.32s1.04,2.32,2.32,2.32Zm-10.77-.05c.15-.03.29-.08.43-.14.14-.06.28-.12.4-.22.12-.08.25-.17.36-.28.43-.43.68-1.04.68-1.64,0-.15-.02-.31-.05-.46-.03-.14-.08-.29-.14-.43-.06-.14-.12-.26-.22-.39-.08-.14-.17-.25-.28-.36-.11-.11-.23-.2-.36-.29-.12-.08-.26-.15-.4-.22-.14-.05-.28-.09-.43-.12-.76-.15-1.56.09-2.09.63-.11.11-.22.22-.29.36-.08.12-.15.25-.22.39-.05.14-.09.29-.12.43-.03.15-.05.31-.05.46,0,.6.25,1.21.68,1.64.43.43,1.02.68,1.64.68.14,0,.29-.02.45-.05Zm-.45-11.17h0c1.27,0,2.32-1.04,2.32-2.32h0c0-1.28-1.05-2.32-2.32-2.32h0c-1.28,0-2.32,1.04-2.32,2.32s1.04,2.32,2.32,2.32Zm.45-11.27c.15-.03.29-.08.43-.12.14-.06.28-.14.4-.22.12-.09.25-.19.36-.29.11-.11.2-.22.28-.36.09-.12.15-.26.22-.4.06-.14.11-.28.14-.43.03-.14.05-.29.05-.45,0-.62-.25-1.21-.68-1.64-.11-.11-.23-.2-.36-.29-.12-.08-.26-.15-.4-.2-.14-.06-.28-.11-.43-.14-.76-.15-1.56.09-2.09.63-.43.43-.68,1.02-.68,1.64,0,.15.02.31.05.45.03.15.08.29.12.43.06.14.14.28.22.4.08.14.19.25.29.36.43.43,1.02.68,1.64.68.14,0,.29-.02.45-.05Zm10.77.05h0c1.27,0,2.32-1.04,2.32-2.32h0c0-1.28-1.05-2.32-2.32-2.32h0c-1.28,0-2.32,1.04-2.32,2.32s1.04,2.32,2.32,2.32Zm12.84-.68c.11-.11.22-.23.29-.36.09-.12.15-.26.22-.4.06-.14.11-.28.14-.43.02-.14.03-.29.03-.45,0-.62-.25-1.21-.68-1.64-.53-.54-1.33-.79-2.09-.63-.14.03-.29.08-.43.12-.14.06-.28.14-.4.22-.12.09-.25.19-.36.29-.42.43-.68,1.02-.68,1.64,0,.15.03.31.05.45.03.15.08.29.14.43.06.14.12.28.22.4.08.12.19.25.28.36.11.11.23.2.36.29.12.08.26.15.4.2.14.06.29.11.43.14.15.03.31.05.46.05.6,0,1.21-.25,1.62-.68Zm-1.64,11.9h0c1.28,0,2.34-1.04,2.34-2.32h0c0-1.28-1.05-2.32-2.34-2.32h0c-1.27,0-2.32,1.04-2.32,2.32s1.05,2.32,2.32,2.32Zm35.81,11.22h-22.44c-1.28,0-2.32-1.04-2.32-2.32v-22.44c0-1.28,1.04-2.32,2.32-2.32h22.44c1.28,0,2.32,1.04,2.32,2.32v22.44c0,1.28-1.04,2.32-2.32,2.32Zm-20.11-4.64h17.79v-17.79h-17.79v17.79Zm-49.85,41.4c.43-.43.68-1.02.68-1.64,0-.15-.02-.29-.05-.45s-.08-.29-.14-.43c-.05-.14-.12-.28-.2-.4-.09-.12-.19-.25-.29-.36-.87-.87-2.41-.87-3.28,0-.11.11-.2.23-.29.36-.08.12-.16.26-.22.4-.05.14-.09.28-.12.43-.03.15-.05.29-.05.45,0,.62.25,1.21.68,1.64.43.43,1.02.68,1.64.68s1.21-.25,1.64-.68Zm-12.86.68h0c1.28,0,2.32-1.04,2.32-2.32h0c0-1.28-1.04-2.32-2.32-2.32h0c-1.28,0-2.32,1.04-2.32,2.32s1.04,2.32,2.32,2.32Zm-9.58-.68c.43-.43.68-1.04.68-1.64s-.25-1.21-.68-1.64c-.54-.54-1.35-.79-2.09-.63-.16.03-.29.08-.43.14-.14.05-.28.12-.4.2-.14.09-.25.19-.36.29-.11.11-.2.23-.29.36-.08.12-.16.26-.2.4-.06.14-.11.28-.14.43-.03.15-.05.29-.05.45,0,.6.25,1.21.68,1.64.11.11.23.2.36.29.12.08.26.15.4.22.14.05.28.09.43.12.14.03.29.05.45.05.6,0,1.21-.25,1.64-.68Zm-1.64-10.54h0c1.28,0,2.32-1.04,2.32-2.32h0c0-1.28-1.04-2.32-2.32-2.32h0c-1.28,0-2.32,1.04-2.32,2.32s1.04,2.32,2.32,2.32Zm1.64-11.9c.43-.43.68-1.02.68-1.64s-.25-1.21-.68-1.64c-.54-.54-1.35-.79-2.09-.63-.16.03-.29.08-.43.14-.14.06-.28.12-.4.22-.12.08-.25.17-.36.28-.11.11-.2.23-.29.36-.08.12-.16.26-.2.4-.06.14-.11.28-.14.43-.03.15-.05.31-.05.45,0,.62.25,1.21.68,1.64.11.11.23.22.36.29.12.08.26.15.4.22.14.06.28.11.43.12.14.03.29.05.45.05.6,0,1.21-.25,1.64-.68Zm9.58.68h0c1.28,0,2.32-1.04,2.32-2.32h0c0-1.27-1.04-2.32-2.32-2.32h0c-1.28,0-2.32,1.05-2.32,2.32s1.04,2.32,2.32,2.32Zm12.86-.68c.11-.09.2-.22.29-.34.08-.14.15-.26.2-.4.06-.14.11-.29.14-.43.03-.15.05-.31.05-.46,0-.6-.25-1.21-.68-1.64-.87-.87-2.43-.87-3.28,0-.43.43-.68,1.04-.68,1.64,0,.15.02.31.05.46.03.14.08.29.12.43.06.14.14.26.22.4.09.12.19.25.29.34.43.43,1.02.68,1.64.68s1.21-.25,1.64-.68Zm-1.64,11.9h0c1.28,0,2.32-1.04,2.32-2.32h0c0-1.28-1.04-2.32-2.32-2.32h0c-1.28,0-2.32,1.04-2.32,2.32s1.04,2.32,2.32,2.32Zm35.8,11.22h-22.44c-1.28,0-2.32-1.04-2.32-2.32v-22.44c0-1.28,1.04-2.32,2.32-2.32h22.44c1.28,0,2.32,1.04,2.32,2.32v22.44c0,1.28-1.04,2.32-2.32,2.32Zm-20.11-4.64h17.79v-17.79h-17.79v17.79Zm55.92,4.64h-22.44c-1.28,0-2.32-1.04-2.32-2.32v-22.44c0-1.28,1.04-2.32,2.32-2.32h22.44c1.28,0,2.32,1.04,2.32,2.32v22.44c0,1.28-1.04,2.32-2.32,2.32Zm-20.11-4.64h17.79v-17.79h-17.79v17.79Zm-51.49,42.08h-22.44c-1.28,0-2.32-1.04-2.32-2.32v-22.44c0-1.28,1.04-2.32,2.32-2.32h22.44c1.28,0,2.32,1.04,2.32,2.32v22.44c0,1.28-1.04,2.32-2.32,2.32Zm-20.11-4.64h17.79v-17.79h-17.79v17.79Zm55.92,4.64h-22.44c-1.28,0-2.32-1.04-2.32-2.32v-22.44c0-1.28,1.04-2.32,2.32-2.32h22.44c1.28,0,2.32,1.04,2.32,2.32v22.44c0,1.28-1.04,2.32-2.32,2.32Zm-20.11-4.64h17.79v-17.79h-17.79v17.79Zm57.56,3.97c.43-.43.68-1.04.68-1.66s-.25-1.21-.68-1.64c-.87-.87-2.42-.87-3.28,0-.43.43-.68,1.04-.68,1.64s.25,1.21.68,1.66c.43.42,1.04.67,1.64.67s1.21-.25,1.64-.67Zm-12.86.67h0c1.28,0,2.32-1.04,2.32-2.32h0c0-1.27-1.04-2.32-2.32-2.32h0c-1.28,0-2.32,1.05-2.32,2.32s1.04,2.32,2.32,2.32Zm-9.58-.68c.11-.09.2-.22.29-.34.08-.12.16-.26.22-.4.05-.14.09-.29.12-.43.03-.15.05-.31.05-.46,0-.6-.25-1.21-.68-1.64-.54-.54-1.33-.77-2.09-.63-.15.03-.29.08-.43.14-.14.06-.28.12-.4.22-.12.08-.25.17-.36.28-.43.43-.68,1.04-.68,1.64,0,.15.02.31.05.46.03.14.08.29.14.43.05.14.12.28.2.4.09.12.19.25.29.34.11.11.23.22.36.29.12.09.26.15.4.22.14.06.28.11.43.14.14.03.29.05.45.05.62,0,1.21-.26,1.64-.7Zm-1.64-10.54h0c1.28,0,2.32-1.04,2.32-2.31h0c0-1.28-1.04-2.32-2.32-2.32h0c-1.28,0-2.32,1.04-2.32,2.32s1.04,2.31,2.32,2.31Zm1.64-11.89c.11-.11.2-.23.29-.36.08-.12.16-.26.22-.4.05-.14.09-.29.12-.43.03-.15.05-.31.05-.45,0-.62-.25-1.22-.68-1.64-.54-.54-1.33-.79-2.09-.65-.15.03-.29.08-.43.14-.14.06-.28.12-.4.22-.12.08-.25.19-.36.29-.43.42-.68,1.02-.68,1.64,0,.14.02.29.05.45.03.14.08.29.14.43.05.14.12.28.2.4.09.12.19.25.29.36.11.11.23.2.36.28.12.09.26.15.4.22.14.06.28.11.43.14.14.03.29.05.45.05.62,0,1.21-.25,1.64-.68Zm9.58.68h0c1.28,0,2.32-1.05,2.32-2.32h0c0-1.28-1.04-2.32-2.32-2.32h0c-1.28,0-2.32,1.04-2.32,2.32s1.04,2.32,2.32,2.32Zm12.86-.68c.43-.43.68-1.04.68-1.64s-.25-1.22-.68-1.64c-.87-.87-2.42-.87-3.28,0-.11.09-.2.22-.29.34-.08.12-.15.26-.22.4-.05.14-.09.29-.12.43-.03.15-.05.31-.05.46,0,.6.25,1.21.68,1.64.43.43,1.04.68,1.64.68s1.21-.25,1.64-.68Zm-1.64,11.9h0c1.28,0,2.32-1.05,2.32-2.32h0c0-1.28-1.04-2.32-2.32-2.32h0c-1.28,0-2.32,1.04-2.32,2.32s1.04,2.32,2.32,2.32Zm-131.27,65.94v9.94c0,1.33.29,2.32.88,2.99.58.66,1.43,1,2.53,1s1.92-.33,2.51-1c.58-.66.88-1.66.88-2.99v-9.94h3.36v9.94c0,1.57-.29,2.89-.88,3.97s-1.39,1.88-2.42,2.41-2.21.79-3.52.79c-2.03,0-3.66-.61-4.87-1.82-1.21-1.22-1.82-3-1.82-5.35v-9.94h3.36Zm16.85,0v16.94h-3.38v-16.94h3.38Zm10.89-5.78l-6.5,27.07h-3.26l6.5-27.07h3.26Zm4.11,5.78v9.94c0,1.33.29,2.32.88,2.99.58.66,1.43,1,2.53,1s1.92-.33,2.51-1c.58-.66.88-1.66.88-2.99v-9.94h3.36v9.94c0,1.57-.29,2.89-.88,3.97s-1.39,1.88-2.42,2.41c-1.03.53-2.21.79-3.52.79-2.03,0-3.66-.61-4.87-1.82-1.22-1.22-1.82-3-1.82-5.35v-9.94h3.36Zm23.11,16.94l-3.82-5.78-3.38,5.78h-3.87l5.33-8.66-5.47-8.28h4.01l3.74,5.66,3.34-5.66h3.86l-5.3,8.52,5.57,8.42h-4.01Zm22.58-16.94v2.69h-4.68v14.26h-3.38v-14.26h-4.66v-2.69h12.72Zm10.42,13.54h-6.79l-1.2,3.41h-3.58l6.24-16.75h3.86l6.22,16.75h-3.58l-1.18-3.41Zm-.91-2.57l-2.5-7.15-2.5,7.15h4.99Zm18.02,3.73c-.43.73-1.07,1.31-1.92,1.75-.85.44-1.88.66-3.1.66s-2.27-.2-3.22-.61c-.94-.41-1.7-1-2.27-1.76s-.89-1.66-.97-2.69h3.6c.08.69.36,1.26.83,1.72.47.46,1.1.68,1.88.68.71,0,1.24-.19,1.62-.56.38-.38.56-.86.56-1.45,0-.53-.15-.96-.46-1.31-.3-.34-.69-.62-1.15-.83s-1.1-.45-1.92-.72c-1.06-.35-1.92-.7-2.59-1.04-.67-.34-1.24-.84-1.72-1.5-.47-.66-.71-1.51-.71-2.57,0-1.46.52-2.6,1.57-3.44,1.05-.84,2.44-1.26,4.16-1.26s3.22.43,4.28,1.3c1.06.86,1.67,2.02,1.81,3.46h-3.65c-.1-.61-.35-1.11-.77-1.5-.42-.39-.98-.59-1.71-.59-.62,0-1.13.16-1.51.49-.38.33-.58.8-.58,1.43,0,.5.15.91.45,1.24.29.33.67.6,1.13.8.46.21,1.08.44,1.86.7,1.09.38,1.97.74,2.65,1.08s1.26.84,1.74,1.51.72,1.55.72,2.64c0,.86-.22,1.66-.65,2.39Zm13.15-1.16h-6.79l-1.2,3.41h-3.58l6.24-16.75h3.86l6.22,16.75h-3.58l-1.18-3.41Zm-.91-2.57l-2.5-7.15-2.5,7.15h4.99Zm16.34,5.98l-3.96-6.6h-1.49v6.6h-3.38v-16.94h6.46c1.97,0,3.47.48,4.5,1.44,1.03.96,1.55,2.22,1.55,3.79,0,1.28-.36,2.35-1.07,3.22-.71.86-1.74,1.44-3.08,1.73l4.22,6.77h-3.74Zm-5.45-8.93h2.78c1.94,0,2.9-.86,2.9-2.57,0-.82-.24-1.45-.71-1.91-.47-.46-1.21-.68-2.2-.68h-2.78v5.16Zm15.1-8.02v16.94h-3.38v-16.94h3.38Zm21.67.19v16.75h-3.36v-11.69l-4.3,11.69h-2.93l-4.29-11.64v11.64h-3.38v-16.75h4.1l5.09,12.6,4.99-12.6h4.08Zm6.79-.19v16.94h-3.38v-16.94h3.38Z"/></svg>