<?xml version="1.0" encoding="UTF-8"?><svg id="uuid-7cb09f37-65b2-4403-a297-f11091b653c1" xmlns="http://www.w3.org/2000/svg" viewBox="0 0 400 400"><defs><style>.uuid-ffabddc1-8ea9-4ad0-be27-95f835fbbff1{fill:#1e0f41;}.uuid-6186d3e5-8ab9-45fa-aa65-724c86e7ac75{fill:#87ff87;}.uuid-97082f1e-bcf7-4a47-9aad-7f3e0dfc5f43{fill:none;}.uuid-59ed97e2-d1f8-4970-9849-d8a91de13943{fill:#00d29b;}</style></defs><rect class="uuid-97082f1e-bcf7-4a47-9aad-7f3e0dfc5f43" width="400" height="400"/><circle class="uuid-6186d3e5-8ab9-45fa-aa65-724c86e7ac75" cx="251.03" cy="208.68" r="48.17"/><path class="uuid-59ed97e2-d1f8-4970-9849-d8a91de13943" d="m198.57,86.35c9,0,16.3,7.3,16.3,16.3s-7.3,16.3-16.3,16.3-16.3-7.3-16.3-16.3,7.3-16.3,16.3-16.3Zm21.74,16.3c0-12-9.73-21.72-21.72-21.72h-76.11c-11.98.03-21.67,9.75-21.67,21.72h0c0,12.01,9.73,21.74,21.72,21.74h76.05c11.98-.03,21.67-9.76,21.67-21.74h.06Z"/><path class="uuid-ffabddc1-8ea9-4ad0-be27-95f835fbbff1" d="m130.94,152.26c-.23,0-.46-.05-.68-.14-.21-.08-.4-.21-.56-.39-.34-.33-.52-.76-.52-1.23,0-.12.01-.24.04-.35.02-.11.06-.22.09-.33.05-.11.11-.21.16-.31.07-.09.14-.19.22-.26.66-.66,1.83-.66,2.49,0,.33.32.52.78.52,1.25s-.19.91-.52,1.23c-.16.18-.36.31-.58.39-.21.09-.44.14-.67.14Zm14.41,0h0c.98,0,1.76-.8,1.76-1.76h0c0-.98-.79-1.76-1.76-1.76h0c-.98,0-1.76.79-1.76,1.76s.79,1.76,1.76,1.76Zm25.18,35.18h-34.96c-.97,0-1.76-.79-1.76-1.76v-12.7c0-.97.79-1.76,1.76-1.76h34.96c.97,0,1.76.79,1.76,1.76v12.7c0,.97-.79,1.76-1.76,1.76Zm-33.2-3.53h31.43v-9.18h-31.43v9.18Zm61.57,3.53h-21.51c-.97,0-1.76-.79-1.76-1.76v-12.7c0-.97.79-1.76,1.76-1.76h21.51c.97,0,1.76.79,1.76,1.76v12.7c0,.97-.79,1.76-1.76,1.76Zm-19.74-3.53h17.98v-9.18h-17.98v9.18Zm47.79,3.53h-21.5c-.97,0-1.76-.79-1.76-1.76v-12.7c0-.97.79-1.76,1.76-1.76h21.5c.97,0,1.76.79,1.76,1.76v12.7c0,.97-.79,1.76-1.76,1.76Zm-19.74-3.53h17.98v-9.18h-17.98v9.18Zm-37.06,31.08h-34.96c-.97,0-1.76-.79-1.76-1.76v-12.7c0-.97.79-1.76,1.76-1.76h34.96c.97,0,1.76.79,1.76,1.76v12.7c0,.97-.79,1.76-1.76,1.76Zm-33.2-3.53h31.43v-9.17h-31.43v9.17Zm89.62,3.53h-49.18c-.97,0-1.76-.79-1.76-1.76v-12.7c0-.97.79-1.76,1.76-1.76h49.18c.97,0,1.76.79,1.76,1.76v12.7c0,.97-.79,1.76-1.76,1.76Zm-47.41-3.53h45.65v-9.17h-45.65v9.17Zm-14.55,31.08h-29.8c-.97,0-1.76-.79-1.76-1.76v-12.7c0-.97.79-1.76,1.76-1.76h29.8c.97,0,1.76.79,1.76,1.76v12.7c0,.97-.79,1.76-1.76,1.76Zm-28.03-3.53h26.27v-9.18h-26.27v9.18Zm50.23,3.53h-15.31c-.97,0-1.76-.79-1.76-1.76v-12.7c0-.97.79-1.76,1.76-1.76h15.31c.97,0,1.76.79,1.76,1.76v12.7c0,.97-.79,1.76-1.76,1.76Zm-13.54-3.53h11.78v-9.18h-11.78v9.18Zm53.31,3.53h-32.77c-.97,0-1.76-.79-1.76-1.76v-12.7c0-.97.79-1.76,1.76-1.76h32.77c.97,0,1.76.79,1.76,1.76v12.7c0,.97-.79,1.76-1.76,1.76Zm-31.01-3.53h29.24v-9.18h-29.24v9.18Zm66.35-114.91c0-.23,0-.46,0-.68,0-15.52-12.62-28.14-28.14-28.14-2.84,0-5.63.42-8.31,1.25-5.32-6.64-13.44-10.57-21.98-10.57-15.52,0-28.14,12.62-28.14,28.14,0,3.4.59,6.69,1.76,9.82-8.95,1.07-16.24,7.56-18.54,16.08h-36.82c-.97,0-1.76.79-1.76,1.76v118.07c0,.97.79,1.76,1.76,1.76h119.18c.97,0,1.76-.79,1.76-1.76v-92.23h15.37c12.09,0,21.92-9.83,21.92-21.92,0-10.76-7.66-19.76-18.08-21.58Zm-138.39,19.43h34.41c-.07.71-.11,1.43-.11,2.16,0,4.21,1.17,8.23,3.41,11.74h-37.71v-13.9Zm115.65,114.55h-115.65v-97.12h40.49s0,0,0,0c4.11,4.25,9.7,6.65,15.73,6.65h59.43v90.47Zm-76.09-98.15s.02.02.02.03c0,0-.02-.02-.02-.03Zm95,4.15h-78.33c-5.84,0-11.2-2.68-14.71-7.36-2.41-3.2-3.68-7.02-3.68-11.04,0-10.13,8.24-18.38,18.38-18.39.61,0,1.17-.31,1.49-.83.32-.51.36-1.16.1-1.7-1.61-3.34-2.43-6.93-2.43-10.67,0-13.57,11.04-24.61,24.61-24.61,7.84,0,15.29,3.8,19.91,10.16.46.64,1.29.89,2.03.62,2.68-.97,5.49-1.46,8.35-1.46,13.57,0,24.61,11.04,24.61,24.61,0,.63-.03,1.31-.09,2.06-.08.96.63,1.81,1.59,1.9,9.45.93,16.58,8.79,16.58,18.3,0,10.14-8.25,18.39-18.39,18.39Zm-128.82,133.47c.62.76.92,1.65.92,2.68,0,1.42-.48,2.55-1.43,3.37-.95.82-2.33,1.24-4.14,1.24h-7.27v-16.94h7.13c1.71,0,3.03.38,3.95,1.13.92.75,1.38,1.81,1.38,3.17,0,1.06-.28,1.92-.83,2.59s-1.28,1.11-2.17,1.32c1.02.21,1.84.69,2.46,1.45Zm-8.53-2.56h3.05c.85,0,1.49-.19,1.93-.56.44-.38.66-.92.66-1.62s-.22-1.25-.65-1.63-1.1-.58-1.99-.58h-3v4.39Zm5.28,6.49c.48-.39.72-.96.72-1.72s-.24-1.33-.73-1.74c-.49-.41-1.18-.61-2.08-.61h-3.19v4.66h3.22c.9,0,1.58-.2,2.06-.59Zm10.02-13.6v9.94c0,1.33.29,2.32.88,2.99s1.43,1,2.53,1,1.92-.33,2.51-1,.88-1.66.88-2.99v-9.94h3.36v9.94c0,1.57-.29,2.89-.88,3.97s-1.39,1.88-2.42,2.41c-1.03.53-2.21.79-3.52.79-2.03,0-3.66-.61-4.87-1.82-1.22-1.22-1.82-3-1.82-5.35v-9.94h3.36Zm16.83,14.35h5.69v2.59h-9.07v-16.94h3.38v14.35Zm10.48-14.35v9.94c0,1.33.29,2.32.88,2.99s1.43,1,2.53,1,1.92-.33,2.51-1,.88-1.66.88-2.99v-9.94h3.36v9.94c0,1.57-.29,2.89-.88,3.97s-1.39,1.88-2.42,2.41c-1.03.53-2.21.79-3.52.79-2.03,0-3.66-.61-4.87-1.82-1.22-1.22-1.82-3-1.82-5.35v-9.94h3.36Zm24.68,0v2.69h-4.68v14.26h-3.38v-14.26h-4.66v-2.69h12.72Zm20.76,0l-5.74,11.02v5.93h-3.41v-5.93l-5.76-11.02h3.89l3.6,7.42,3.6-7.42h3.82Zm10.31,13.54h-6.79l-1.2,3.41h-3.58l6.24-16.75h3.86l6.22,16.75h-3.58l-1.18-3.41Zm-.91-2.57l-2.5-7.15-2.5,7.15h4.99Zm11.01,3.24h7.9v2.74h-11.64v-2.59l7.73-11.64h-7.61v-2.71h11.42v2.59l-7.8,11.62Zm14-14.21v16.94h-3.38v-16.94h3.38Zm6.79,14.35h5.69v2.59h-9.07v-16.94h3.38v14.35Zm11.01-14.35v16.94h-3.38v-16.94h3.38Zm21.67.19v16.75h-3.36v-11.69l-4.3,11.69h-2.93l-4.3-11.64v11.64h-3.38v-16.75h4.1l5.09,12.6,4.99-12.6h4.08Z"/></svg>