<?xml version="1.0" encoding="UTF-8"?><svg id="uuid-1418e032-26a7-4c92-a5e1-28428461973d" xmlns="http://www.w3.org/2000/svg" viewBox="0 0 400 400"><defs><style>.uuid-f149bb92-c31d-4b6a-ad37-ea580ac5d690{fill:#1e0f41;}.uuid-71743b5e-bddd-459a-8e7b-4dd94cf246a1{fill:#87ff87;}.uuid-dd42d49a-51c0-49cd-8090-a901c548dcd2{fill:none;}.uuid-60d0960e-85df-46fc-837d-9867cf78551a{fill:#00d29b;}</style></defs><rect class="uuid-dd42d49a-51c0-49cd-8090-a901c548dcd2" width="400" height="400"/><circle class="uuid-71743b5e-bddd-459a-8e7b-4dd94cf246a1" cx="251.03" cy="208.68" r="48.17"/><path class="uuid-60d0960e-85df-46fc-837d-9867cf78551a" d="m198.57,86.35c9,0,16.3,7.3,16.3,16.3s-7.3,16.3-16.3,16.3-16.3-7.3-16.3-16.3,7.3-16.3,16.3-16.3Zm21.74,16.3c0-12-9.73-21.72-21.72-21.72h-76.11c-11.98.03-21.67,9.75-21.67,21.72h0c0,12.01,9.73,21.74,21.72,21.74h76.05c11.98-.03,21.67-9.76,21.67-21.74h.06Z"/><path class="uuid-f149bb92-c31d-4b6a-ad37-ea580ac5d690" d="m199.55,182.01h0c-.81,0-1.56-.43-1.98-1.13l-5.04-8.47c-.65-1.09-.29-2.51.8-3.16,1.1-.65,2.51-.29,3.16.8l3.06,5.15,5.86-9.81c.65-1.09,2.07-1.45,3.16-.8,1.09.65,1.45,2.07.8,3.16l-7.84,13.13c-.42.7-1.17,1.12-1.98,1.12Zm20.13,9.38v-34.14c0-1.27-1.03-2.31-2.31-2.31h-34.15c-1.27,0-2.31,1.03-2.31,2.31v34.14c0,1.27,1.03,2.31,2.31,2.31h34.15c1.27,0,2.31-1.03,2.31-2.31Zm-34.15-31.84h29.53v29.53h-29.53v-29.53Zm53.02,50.95v-72.37c0-1.27-1.03-2.31-2.31-2.31h-72.37c-1.27,0-2.31,1.03-2.31,2.31v72.37c0,1.27,1.03,2.31,2.31,2.31h72.37c1.27,0,2.31-1.03,2.31-2.31Zm-72.37-70.07h67.76v67.76h-67.76v-67.76Zm-16.12-18.53v-25.8c0-1.27-1.03-2.31-2.31-2.31h-25.8c-1.27,0-2.31,1.03-2.31,2.31v25.8c0,1.27,1.03,2.31,2.31,2.31h25.8c1.27,0,2.31-1.03,2.31-2.31Zm-25.8-23.5h21.19v21.19h-21.19v-21.19Zm156.08,23.5v-25.8c0-1.27-1.03-2.31-2.31-2.31h-25.8c-1.27,0-2.31,1.03-2.31,2.31v25.8c0,1.27,1.03,2.31,2.31,2.31h25.8c1.27,0,2.31-1.03,2.31-2.31Zm-25.8-23.5h21.19v21.19h-21.19v-21.19Zm-104.46,153.08v-25.8c0-1.27-1.03-2.31-2.31-2.31h-25.8c-1.27,0-2.31,1.03-2.31,2.31v25.8c0,1.27,1.03,2.31,2.31,2.31h25.8c1.27,0,2.31-1.03,2.31-2.31Zm-25.8-23.5h21.19v21.19h-21.19v-21.19Zm156.08,23.5v-25.8c0-1.27-1.03-2.31-2.31-2.31h-25.8c-1.27,0-2.31,1.03-2.31,2.31v25.8c0,1.27,1.03,2.31,2.31,2.31h25.8c1.27,0,2.31-1.03,2.31-2.31Zm-25.8-23.5h21.19v21.19h-21.19v-21.19Zm-16.09-89.12l15.4-15.34c.9-.9.9-2.36,0-3.26-.9-.9-2.36-.9-3.26,0l-15.4,15.34c-.9.9-.9,2.36,0,3.26.45.45,1.04.68,1.63.68s1.18-.22,1.63-.67Zm15.27,88.99c.9-.9.9-2.36,0-3.26l-15.4-15.34c-.9-.9-2.36-.9-3.26,0-.9.9-.9,2.36,0,3.26l15.4,15.34c.45.45,1.04.67,1.63.67s1.18-.23,1.63-.68Zm-89.18-89c.9-.9.9-2.36,0-3.26l-15.4-15.34c-.9-.9-2.36-.9-3.26,0-.9.9-.9,2.36,0,3.26l15.4,15.34c.45.45,1.04.67,1.63.67s1.18-.23,1.63-.68Zm-15.27,89l15.4-15.34c.9-.9.9-2.36,0-3.26-.9-.9-2.36-.9-3.26,0l-15.4,15.34c-.9.9-.9,2.36,0,3.26.45.45,1.04.68,1.63.68s1.18-.22,1.63-.67Zm53.03-90.63v-18.25c0-1.27-1.03-2.31-2.31-2.31s-2.31,1.03-2.31,2.31v18.25c0,1.27,1.03,2.31,2.31,2.31s2.31-1.03,2.31-2.31Zm8.21-28.24c0-5.84-4.75-10.6-10.6-10.6s-10.6,4.75-10.6,10.6,4.75,10.6,10.6,10.6,10.6-4.76,10.6-10.6Zm-4.61,0c0,3.3-2.69,5.99-5.99,5.99s-5.99-2.69-5.99-5.99,2.69-5.99,5.99-5.99,5.99,2.69,5.99,5.99Zm-3.6,120.67v-18.25c0-1.27-1.03-2.31-2.31-2.31s-2.31,1.03-2.31,2.31v18.25c0,1.27,1.03,2.31,2.31,2.31s2.31-1.03,2.31-2.31Zm8.21,9.99c0-5.84-4.75-10.6-10.6-10.6s-10.6,4.75-10.6,10.6,4.75,10.6,10.6,10.6,10.6-4.75,10.6-10.6Zm-4.61,0c0,3.3-2.69,5.99-5.99,5.99s-5.99-2.69-5.99-5.99,2.69-5.99,5.99-5.99,5.99,2.69,5.99,5.99Zm51.66-65.25c0-1.27-1.03-2.31-2.31-2.31h-18.25c-1.27,0-2.31,1.03-2.31,2.31s1.03,2.31,2.31,2.31h18.25c1.27,0,2.31-1.03,2.31-2.31Zm18.28-.08c0-5.84-4.75-10.6-10.6-10.6s-10.6,4.75-10.6,10.6,4.75,10.6,10.6,10.6,10.6-4.76,10.6-10.6Zm-4.61,0c0,3.3-2.69,5.99-5.99,5.99s-5.99-2.69-5.99-5.99,2.69-5.99,5.99-5.99,5.99,2.69,5.99,5.99Zm-106.1.08c0-1.27-1.03-2.31-2.31-2.31h-18.25c-1.27,0-2.31,1.03-2.31,2.31s1.03,2.31,2.31,2.31h18.25c1.27,0,2.31-1.03,2.31-2.31Zm-19.95-.08c0-5.84-4.76-10.6-10.6-10.6s-10.6,4.75-10.6,10.6,4.76,10.6,10.6,10.6,10.6-4.76,10.6-10.6Zm-4.61,0c0,3.3-2.69,5.99-5.99,5.99s-5.99-2.69-5.99-5.99,2.69-5.99,5.99-5.99,5.99,2.69,5.99,5.99Zm-37.77,125.88c0-1.09-.24-1.97-.72-2.64-.48-.67-1.06-1.18-1.74-1.51s-1.56-.7-2.65-1.08c-.78-.26-1.4-.49-1.86-.7s-.83-.48-1.13-.8c-.3-.33-.44-.74-.44-1.24,0-.62.19-1.1.58-1.43.38-.33.89-.49,1.51-.49.72,0,1.29.2,1.7.59.42.39.67.89.77,1.5h3.65c-.14-1.44-.75-2.59-1.81-3.46-1.06-.86-2.49-1.3-4.28-1.3s-3.12.42-4.16,1.26-1.57,1.99-1.57,3.44c0,1.06.24,1.91.71,2.57s1.04,1.16,1.72,1.5c.67.34,1.54.69,2.59,1.04.82.27,1.46.51,1.92.72.46.21.85.48,1.15.83.3.34.46.78.46,1.31,0,.59-.19,1.08-.56,1.45-.38.38-.92.56-1.62.56-.78,0-1.41-.23-1.88-.68-.47-.46-.75-1.03-.83-1.72h-3.6c.08,1.02.4,1.92.97,2.69.57.77,1.32,1.36,2.27,1.76.94.41,2.02.61,3.22.61s2.25-.22,3.1-.66c.85-.44,1.49-1.02,1.92-1.75.43-.73.65-1.52.65-2.39Zm2.75-12.31v16.94h3.38v-16.94h-3.38Zm.17-3.17c0,.42.15.77.44,1.07.3.3.65.44,1.07.44s.8-.15,1.09-.44.44-.65.44-1.07-.15-.8-.44-1.09-.66-.44-1.09-.44-.77.15-1.07.44c-.3.3-.44.66-.44,1.09Zm18.21,15.48c0-1.09-.24-1.97-.72-2.64-.48-.67-1.06-1.18-1.74-1.51s-1.56-.7-2.65-1.08c-.78-.26-1.4-.49-1.86-.7s-.83-.48-1.13-.8c-.3-.33-.44-.74-.44-1.24,0-.62.19-1.1.58-1.43.38-.33.89-.49,1.51-.49.72,0,1.29.2,1.7.59.42.39.67.89.77,1.5h3.65c-.14-1.44-.75-2.59-1.81-3.46-1.06-.86-2.49-1.3-4.28-1.3s-3.12.42-4.16,1.26-1.57,1.99-1.57,3.44c0,1.06.24,1.91.71,2.57s1.04,1.16,1.72,1.5c.67.34,1.54.69,2.59,1.04.82.27,1.46.51,1.92.72.46.21.85.48,1.15.83.3.34.46.78.46,1.31,0,.59-.19,1.08-.56,1.45-.38.38-.92.56-1.62.56-.78,0-1.41-.23-1.88-.68-.47-.46-.75-1.03-.83-1.72h-3.6c.08,1.02.4,1.92.97,2.69.57.77,1.32,1.36,2.27,1.76.94.41,2.02.61,3.22.61s2.25-.22,3.1-.66c.85-.44,1.49-1.02,1.92-1.75.43-.73.65-1.52.65-2.39Zm1.23-12.31v2.69h4.66v14.26h3.38v-14.26h4.68v-2.69h-12.72Zm24.68,2.69v-2.69h-10.1v16.94h10.1v-2.71h-6.72v-4.56h6v-2.59h-6v-4.39h6.72Zm16.99-2.5l-4.99,12.6-5.09-12.6h-4.1v16.75h3.38v-11.64l4.3,11.64h2.93l4.3-11.69v11.69h3.36v-16.75h-4.08Zm20.23-.36c-1.66,0-3.13.37-4.39,1.1-1.26.74-2.24,1.76-2.94,3.06-.7,1.3-1.04,2.8-1.04,4.48s.35,3.17,1.04,4.48c.7,1.3,1.68,2.32,2.95,3.05,1.27.73,2.74,1.09,4.4,1.09,1.46,0,2.75-.28,3.88-.85,1.13-.57,2.04-1.32,2.74-2.27.7-.94,1.16-1.98,1.4-3.1v-3.26h-8.57v2.42h5.74c-.26,1.28-.82,2.28-1.69,3-.87.72-1.92,1.08-3.13,1.08-1.65,0-2.95-.5-3.9-1.49-.95-.99-1.43-2.38-1.43-4.15,0-1.12.21-2.1.62-2.93.42-.83,1-1.47,1.75-1.92.75-.45,1.62-.67,2.59-.67s1.85.23,2.58.68c.73.46,1.26,1.07,1.6,1.84h3.55c-.38-1.73-1.26-3.1-2.62-4.12-1.36-1.02-3.07-1.52-5.14-1.52Zm20.89,2.86v-2.69h-10.1v16.94h10.1v-2.71h-6.72v-4.56h6v-2.59h-6v-4.39h6.72Zm6.19-2.69h-3.38v16.94h9.07v-2.59h-5.69v-14.35Zm7.62,0v16.94h3.38v-16.94h-3.38Zm.17-3.17c0,.42.15.77.44,1.07.3.3.65.44,1.07.44s.8-.15,1.09-.44.44-.65.44-1.07-.15-.8-.44-1.09-.66-.44-1.09-.44-.77.15-1.07.44c-.3.3-.44.66-.44,1.09Zm18.02,15.48c0-1.09-.24-1.97-.72-2.64-.48-.67-1.06-1.18-1.74-1.51s-1.56-.7-2.65-1.08c-.78-.26-1.4-.49-1.86-.7s-.83-.48-1.13-.8c-.3-.33-.44-.74-.44-1.24,0-.62.19-1.1.58-1.43.38-.33.89-.49,1.51-.49.72,0,1.29.2,1.7.59.42.39.67.89.77,1.5h3.65c-.14-1.44-.75-2.59-1.81-3.46-1.06-.86-2.49-1.3-4.28-1.3s-3.12.42-4.16,1.26-1.57,1.99-1.57,3.44c0,1.06.24,1.91.71,2.57s1.04,1.16,1.72,1.5c.67.34,1.54.69,2.59,1.04.82.27,1.46.51,1.92.72.46.21.85.48,1.15.83.3.34.46.78.46,1.31,0,.59-.19,1.08-.56,1.45-.38.38-.92.56-1.62.56-.78,0-1.41-.23-1.88-.68-.47-.46-.75-1.03-.83-1.72h-3.6c.08,1.02.4,1.92.97,2.69.57.77,1.32,1.36,2.27,1.76.94.41,2.02.61,3.22.61s2.25-.22,3.1-.66c.85-.44,1.49-1.02,1.92-1.75.43-.73.65-1.52.65-2.39Zm-4.85,5.88v-1.42h-2.04v3.02h1.58c.42,0,.72.07.92.22.2.14.3.34.3.58,0,.58-.41.86-1.22.86h-2.74v1.82h3.1c.9,0,1.65-.21,2.26-.64.61-.42.91-1.07.91-1.93s-.3-1.53-.9-1.94-1.32-.61-2.17-.58Zm6.07-18.19v2.69h4.66v14.26h3.38v-14.26h4.68v-2.69h-12.72Zm14.57,0v16.94h3.38v-16.94h-3.38Zm.17-3.17c0,.42.15.77.44,1.07.3.3.65.44,1.07.44s.8-.15,1.09-.44.44-.65.44-1.07-.15-.8-.44-1.09-.66-.44-1.09-.44-.77.15-1.07.44c-.3.3-.44.66-.44,1.09Zm19.2,20.11l-4.22-6.77c1.34-.29,2.37-.86,3.08-1.73s1.07-1.94,1.07-3.22c0-1.57-.52-2.83-1.55-3.79s-2.53-1.44-4.5-1.44h-6.46v16.94h3.38v-6.6h1.49l3.96,6.6h3.74Zm-9.19-14.09h2.78c.99,0,1.72.23,2.2.68.47.46.71,1.09.71,1.91,0,1.71-.97,2.57-2.9,2.57h-2.78v-5.16Zm25.86-2.66l-4.99,12.6-5.09-12.6h-4.1v16.75h3.38v-11.64l4.3,11.64h2.93l4.3-11.69v11.69h3.36v-16.75h-4.08Zm17.6,2.5v-2.69h-10.1v16.94h10.1v-2.71h-6.72v-4.56h6v-2.59h-6v-4.39h6.72Z"/></svg>