<svg width="693" height="145" viewBox="0 0 693 145" fill="none" xmlns="http://www.w3.org/2000/svg">
<g clip-path="url(#clip0_2_205)">
<path d="M261 36.08H207C204.613 36.08 202.324 37.0282 200.636 38.716C198.948 40.4038 198 42.693 198 45.08C198 47.4669 198.948 49.7561 200.636 51.4439C202.324 53.1317 204.613 54.08 207 54.08H225V99.08C225 101.467 225.948 103.756 227.636 105.444C229.324 107.132 231.613 108.08 234 108.08C236.387 108.08 238.676 107.132 240.364 105.444C242.052 103.756 243 101.467 243 99.08V54.08H261C263.387 54.08 265.676 53.1317 267.364 51.4439C269.052 49.7561 270 47.4669 270 45.08C270 42.693 269.052 40.4038 267.364 38.716C265.676 37.0282 263.387 36.08 261 36.08Z" fill="#4D4D4D"/>
<path d="M603 36.08H549C546.613 36.08 544.324 37.0282 542.636 38.716C540.948 40.4038 540 42.693 540 45.08C540 47.4669 540.948 49.7561 542.636 51.4439C544.324 53.1317 546.613 54.08 549 54.08H567V99.08C567 101.467 567.948 103.756 569.636 105.444C571.324 107.132 573.613 108.08 576 108.08C578.387 108.08 580.676 107.132 582.364 105.444C584.052 103.756 585 101.467 585 99.08V54.08H603C605.387 54.08 607.676 53.1317 609.364 51.4439C611.052 49.7561 612 47.4669 612 45.08C612 42.693 611.052 40.4038 609.364 38.716C607.676 37.0282 605.387 36.08 603 36.08Z" fill="#4D4D4D"/>
<path d="M315 36.08C307.88 36.08 300.92 38.1913 294.999 42.147C289.079 46.1028 284.465 51.7252 281.74 58.3034C279.016 64.8815 278.303 72.1199 279.692 79.1032C281.081 86.0865 284.509 92.5011 289.544 97.5358C294.579 102.57 300.993 105.999 307.977 107.388C314.96 108.777 322.198 108.064 328.777 105.34C335.355 102.615 340.977 98.0007 344.933 92.0805C348.889 86.1603 351 79.2001 351 72.08C351 62.5322 347.207 53.3754 340.456 46.6241C333.705 39.8728 324.548 36.08 315 36.08ZM315 90.08C311.44 90.08 307.96 89.0243 305 87.0464C302.04 85.0685 299.733 82.2573 298.37 78.9683C297.008 75.6792 296.651 72.06 297.346 68.5683C298.04 65.0767 299.755 61.8694 302.272 59.352C304.789 56.8347 307.997 55.1204 311.488 54.4258C314.98 53.7313 318.599 54.0877 321.888 55.4501C325.177 56.8125 327.989 59.1196 329.966 62.0797C331.944 65.0398 333 68.5199 333 72.08C333 76.8539 331.104 81.4322 327.728 84.8079C324.352 88.1835 319.774 90.08 315 90.08Z" fill="#4D4D4D"/>
<path d="M657 36.08C649.88 36.08 642.92 38.1913 636.999 42.147C631.079 46.1028 626.465 51.7252 623.74 58.3034C621.016 64.8815 620.303 72.1199 621.692 79.1032C623.081 86.0865 626.509 92.5011 631.544 97.5358C636.579 102.57 642.993 105.999 649.977 107.388C656.96 108.777 664.198 108.064 670.777 105.34C677.355 102.615 682.977 98.0007 686.933 92.0805C690.889 86.1603 693 79.2001 693 72.08C693 62.5322 689.207 53.3754 682.456 46.6241C675.705 39.8728 666.548 36.08 657 36.08ZM657 90.08C653.44 90.08 649.96 89.0243 647 87.0464C644.04 85.0685 641.733 82.2573 640.37 78.9683C639.008 75.6792 638.651 72.06 639.346 68.5683C640.04 65.0767 641.755 61.8694 644.272 59.352C646.789 56.8347 649.997 55.1204 653.488 54.4258C656.98 53.7313 660.599 54.0877 663.888 55.4501C667.177 56.8125 669.989 59.1196 671.966 62.0797C673.944 65.0398 675 68.5199 675 72.08C675 76.8539 673.104 81.4322 669.728 84.8079C666.352 88.1835 661.774 90.08 657 90.08Z" fill="#4D4D4D"/>
<path d="M414 36.08H378C375.613 36.08 373.324 37.0282 371.636 38.716C369.948 40.4038 369 42.693 369 45.08C369 47.4669 369.948 49.7561 371.636 51.4439C373.324 53.1317 375.613 54.08 378 54.08H414C415.193 54.08 416.338 54.5541 417.182 55.398C418.026 56.2419 418.5 57.3865 418.5 58.58C418.5 59.7734 418.026 60.918 417.182 61.7619C416.338 62.6059 415.193 63.08 414 63.08H378C375.613 63.08 373.324 64.0282 371.636 65.716C369.948 67.4038 369 69.693 369 72.08C369 74.4669 369.948 76.7561 371.636 78.4439C373.324 80.1317 375.613 81.08 378 81.08H414C415.193 81.08 416.338 81.5541 417.182 82.398C418.026 83.2419 418.5 84.3865 418.5 85.58C418.5 86.7734 418.026 87.918 417.182 88.7619C416.338 89.6058 415.193 90.08 414 90.08H378C375.613 90.08 373.324 91.0282 371.636 92.716C369.948 94.4038 369 96.693 369 99.08C369 101.467 369.948 103.756 371.636 105.444C373.324 107.132 375.613 108.08 378 108.08H414C418.179 108.08 422.274 106.916 425.829 104.72C429.383 102.523 432.256 99.3796 434.125 95.6423C435.993 91.9049 436.784 87.721 436.409 83.5593C436.034 79.3977 434.507 75.4228 432 72.08C434.507 68.7371 436.034 64.7622 436.409 60.6006C436.784 56.4389 435.993 52.255 434.125 48.5176C432.256 44.7803 429.383 41.6371 425.829 39.4403C422.274 37.2435 418.179 36.08 414 36.08Z" fill="#4D4D4D"/>
<path d="M477 54.08H513C515.387 54.08 517.676 53.1317 519.364 51.4439C521.052 49.7561 522 47.4669 522 45.08C522 42.693 521.052 40.4038 519.364 38.716C517.676 37.0282 515.387 36.08 513 36.08H477C472.821 36.08 468.726 37.2435 465.171 39.4403C461.617 41.6371 458.744 44.7803 456.875 48.5176C455.007 52.255 454.216 56.4389 454.591 60.6006C454.966 64.7622 456.493 68.7371 459 72.08C456.493 75.4228 454.966 79.3977 454.591 83.5593C454.216 87.721 455.007 91.9049 456.875 95.6423C458.744 99.3796 461.617 102.523 465.171 104.72C468.726 106.916 472.821 108.08 477 108.08H513C515.387 108.08 517.676 107.132 519.364 105.444C521.052 103.756 522 101.467 522 99.08C522 96.693 521.052 94.4038 519.364 92.716C517.676 91.0282 515.387 90.08 513 90.08H477C475.807 90.08 474.662 89.6058 473.818 88.7619C472.974 87.918 472.5 86.7734 472.5 85.58C472.5 84.3865 472.974 83.2419 473.818 82.398C474.662 81.5541 475.807 81.08 477 81.08H513C515.387 81.08 517.676 80.1317 519.364 78.4439C521.052 76.7561 522 74.4669 522 72.08C522 69.693 521.052 67.4038 519.364 65.716C517.676 64.0282 515.387 63.08 513 63.08H477C475.807 63.08 474.662 62.6059 473.818 61.7619C472.974 60.918 472.5 59.7734 472.5 58.58C472.5 57.3865 472.974 56.2419 473.818 55.398C474.662 54.5541 475.807 54.08 477 54.08Z" fill="#4D4D4D"/>
<path d="M103.58 49.58C111.036 49.58 117.08 43.5358 117.08 36.08C117.08 28.6241 111.036 22.58 103.58 22.58C96.1242 22.58 90.0801 28.6241 90.0801 36.08C90.0801 43.5358 96.1242 49.58 103.58 49.58Z" fill="#9933FF"/>
<path fill-rule="evenodd" clip-rule="evenodd" d="M126.08 0H18C13.2261 0 8.64773 1.89642 5.27208 5.27208C1.89642 8.64773 0 13.2261 0 18L0 126.08C0 130.854 1.89642 135.432 5.27208 138.808C8.64773 142.184 13.2261 144.08 18 144.08H126.08C130.854 144.08 135.432 142.184 138.808 138.808C142.184 135.432 144.08 130.854 144.08 126.08V18C144.08 13.2261 142.184 8.64773 138.808 5.27208C135.432 1.89642 130.854 0 126.08 0V0ZM90.08 108.08C90.08 112.854 88.1836 117.432 84.8079 120.808C81.4323 124.184 76.8539 126.08 72.08 126.08C67.3061 126.08 62.7277 124.184 59.3521 120.808C55.9764 117.432 54.08 112.854 54.08 108.08V81.08C54.08 76.3061 55.9764 71.7277 59.3521 68.3521C62.7277 64.9764 67.3061 63.08 72.08 63.08C76.8539 63.08 81.4323 64.9764 84.8079 68.3521C88.1836 71.7277 90.08 76.3061 90.08 81.08V108.08ZM121.54 36.08C121.54 40.8539 119.644 45.4323 116.268 48.8079C112.892 52.1836 108.314 54.08 103.54 54.08H40.54C35.7661 54.08 31.1877 52.1836 27.8121 48.8079C24.4364 45.4323 22.54 40.8539 22.54 36.08C22.54 31.3061 24.4364 26.7277 27.8121 23.3521C31.1877 19.9764 35.7661 18.08 40.54 18.08H103.54C108.314 18.08 112.892 19.9764 116.268 23.3521C119.644 26.7277 121.54 31.3061 121.54 36.08Z" fill="#9933FF"/>
</g>
<defs>
<clipPath id="clip0_2_205">
<rect width="693" height="144.08" fill="white"/>
</clipPath>
</defs>
</svg>
